<svg xmlns="http://www.w3.org/2000/svg" xmlns:xlink="http://www.w3.org/1999/xlink" contentStyleType="text/css" data-diagram-type="CLASS" height="522px" preserveAspectRatio="none" style="width:1952px;height:522px;background:#FFFFFF;" version="1.1" viewBox="0 0 1952 522" width="1952px" zoomAndPan="magnify"><title>&#1048;&#1077;&#1088;&#1072;&#1088;&#1093;&#1080;&#1103; &#1082;&#1083;&#1072;&#1089;&#1089;&#1086;&#1074;: agents.py + utils.py</title><defs/><g><g class="title" data-source-line="6"><text fill="#000000" font-family="sans-serif" font-size="14" font-weight="bold" lengthAdjust="spacing" textLength="317.1123" x="810.4438" y="22.9951">&#1048;&#1077;&#1088;&#1072;&#1088;&#1093;&#1080;&#1103; &#1082;&#1083;&#1072;&#1089;&#1089;&#1086;&#1074;: agents.py + utils.py</text></g><!--cluster agents--><g class="cluster" data-entity="agents" data-source-line="9" data-uid="ent0004" id="cluster_agents"><path d="M10,51.7969 L61.9561,51.7969 A6,6 0 0 1 65.9561,55.7969 L72.9561,74.0938 L1589,74.0938 A4,4 0 0 1 1593,78.0938 L1593,511.2969 A4,4 0 0 1 1589,515.2969 L10,515.2969 A4,4 0 0 1 6,511.2969 L6,55.7969 A4,4 0 0 1 10,51.7969" fill="none" style="stroke:#000000;stroke-width:1.5;"/><line style="stroke:#000000;stroke-width:1.5;" x1="6" x2="72.9561" y1="74.0938" y2="74.0938"/><text fill="#000000" font-family="sans-serif" font-size="14" font-weight="bold" lengthAdjust="spacing" textLength="53.9561" x="10" y="66.792">agents</text></g><!--cluster py--><g class="cluster" data-entity="py" data-source-line="8" data-uid="ent0002" id="cluster_py"><path d="M34,94.7969 L51.1475,94.7969 A6,6 0 0 1 55.1475,98.7969 L62.1475,117.0938 L1565,117.0938 A4,4 0 0 1 1569,121.0938 L1569,487.2969 A4,4 0 0 1 1565,491.2969 L34,491.2969 A4,4 0 0 1 30,487.2969 L30,98.7969 A4,4 0 0 1 34,94.7969" fill="#E8F5E9" style="stroke:#000000;stroke-width:1.5;"/><line style="stroke:#000000;stroke-width:1.5;" x1="30" x2="62.1475" y1="117.0938" y2="117.0938"/><text fill="#000000" font-family="sans-serif" font-size="14" font-weight="bold" lengthAdjust="spacing" textLength="19.1475" x="34" y="109.792">py</text></g><!--cluster utils--><g class="cluster" data-entity="utils" data-source-line="71" data-uid="ent0023" id="cluster_utils"><path d="M1621,43.2969 L1653.5898,43.2969 A6,6 0 0 1 1657.5898,47.2969 L1664.5898,65.5938 L1941,65.5938 A4,4 0 0 1 1945,69.5938 L1945,295.2969 A4,4 0 0 1 1941,299.2969 L1621,299.2969 A4,4 0 0 1 1617,295.2969 L1617,47.2969 A4,4 0 0 1 1621,43.2969" fill="none" style="stroke:#000000;stroke-width:1.5;"/><line style="stroke:#000000;stroke-width:1.5;" x1="1617" x2="1664.5898" y1="65.5938" y2="65.5938"/><text fill="#000000" font-family="sans-serif" font-size="14" font-weight="bold" lengthAdjust="spacing" textLength="34.5898" x="1621" y="58.292">utils</text></g><!--cluster py--><g class="cluster" data-entity="py" data-source-line="70" data-uid="ent0021" id="cluster_py"><path d="M1645,86.2969 L1662.1475,86.2969 A6,6 0 0 1 1666.1475,90.2969 L1673.1475,108.5938 L1917,108.5938 A4,4 0 0 1 1921,112.5938 L1921,271.2969 A4,4 0 0 1 1917,275.2969 L1645,275.2969 A4,4 0 0 1 1641,271.2969 L1641,90.2969 A4,4 0 0 1 1645,86.2969" fill="#E3F2FD" style="stroke:#000000;stroke-width:1.5;"/><line style="stroke:#000000;stroke-width:1.5;" x1="1641" x2="1673.1475" y1="108.5938" y2="108.5938"/><text fill="#000000" font-family="sans-serif" font-size="14" font-weight="bold" lengthAdjust="spacing" textLength="19.1475" x="1645" y="101.292">py</text></g><!--class ElectricAppliance--><g class="entity" data-entity="ElectricAppliance" data-source-line="9" data-uid="ent0003" id="entity_ElectricAppliance"><rect fill="#F1F1F1" height="121.4531" rx="4" ry="4" style="stroke:#181818;stroke-width:0.5;" width="193.665" x="804" y="129.7969"/><ellipse cx="837.4025" cy="149.9297" fill="#A9DCDF" rx="11" ry="11" style="stroke:#181818;stroke-width:1;"/><path d="M837.5119,145.2734 L836.3557,150.3516 L838.6838,150.3516 L837.5119,145.2734 Z M836.0275,143.0391 L839.0119,143.0391 L842.3713,155.4297 L839.9182,155.4297 L839.1525,152.3672 L835.8713,152.3672 L835.1213,155.4297 L832.6838,155.4297 L836.0275,143.0391 Z " fill="#000000"/><text fill="#000000" font-family="sans-serif" font-size="12" font-style="italic" lengthAdjust="spacing" textLength="39.6328" x="896.0608" y="145.9355">&#171;ABC&#187;</text><text fill="#000000" font-family="sans-serif" font-size="14" font-style="italic" lengthAdjust="spacing" textLength="120.7705" x="855.492" y="161.7607">ElectricAppliance</text><line style="stroke:#181818;stroke-width:0.5;" x1="805" x2="996.665" y1="170.0625" y2="170.0625"/><text fill="#000000" font-family="sans-serif" font-size="14" lengthAdjust="spacing" textLength="79.1396" x="810" y="187.0576">+name: str</text><text fill="#000000" font-family="sans-serif" font-size="14" lengthAdjust="spacing" textLength="158.9287" x="810" y="203.3545">+nominal_power: float</text><text fill="#000000" font-family="sans-serif" font-size="14" lengthAdjust="spacing" textLength="90.043" x="810" y="219.6514">+t0, t1: float</text><line style="stroke:#181818;stroke-width:0.5;" x1="805" x2="996.665" y1="226.9531" y2="226.9531"/><text fill="#000000" font-family="sans-serif" font-size="14" font-style="italic" lengthAdjust="spacing" textLength="181.665" x="810" y="243.9482">+measure_consumption()</text></g><!--class EssentialAppliance--><g class="entity" data-entity="EssentialAppliance" data-source-line="16" data-uid="ent0005" id="entity_EssentialAppliance"><rect fill="#F1F1F1" height="64.2969" rx="4" ry="4" style="stroke:#181818;stroke-width:0.5;" width="266.3516" x="1064" y="386.7969"/><ellipse cx="1127.0957" cy="402.7969" fill="#ADD1B2" rx="11" ry="11" style="stroke:#181818;stroke-width:1;"/><path d="M1130.0645,408.4375 Q1129.4863,408.7344 1128.8457,408.875 Q1128.2051,409.0313 1127.502,409.0313 Q1125.002,409.0313 1123.6738,407.3906 Q1122.3613,405.7344 1122.3613,402.6094 Q1122.3613,399.4844 1123.6738,397.8281 Q1125.002,396.1719 1127.502,396.1719 Q1128.2051,396.1719 1128.8457,396.3281 Q1129.502,396.4844 1130.0645,396.7813 L1130.0645,399.5 Q1129.4395,398.9219 1128.8457,398.6563 Q1128.252,398.375 1127.627,398.375 Q1126.2832,398.375 1125.5957,399.4531 Q1124.9082,400.5156 1124.9082,402.6094 Q1124.9082,404.7031 1125.5957,405.7813 Q1126.2832,406.8438 1127.627,406.8438 Q1128.252,406.8438 1128.8457,406.5781 Q1129.4395,406.2969 1130.0645,405.7188 L1130.0645,408.4375 Z " fill="#000000"/><text fill="#000000" font-family="sans-serif" font-size="14" lengthAdjust="spacing" textLength="131.6602" x="1147.5957" y="407.6436">EssentialAppliance</text><line style="stroke:#181818;stroke-width:0.5;" x1="1065" x2="1329.3516" y1="418.7969" y2="418.7969"/><line style="stroke:#181818;stroke-width:0.5;" x1="1065" x2="1329.3516" y1="426.7969" y2="426.7969"/><text fill="#000000" font-family="sans-serif" font-size="14" lengthAdjust="spacing" textLength="254.3516" x="1070" y="443.792">&#1042;&#1089;&#1077;&#1075;&#1076;&#1072; &#1074;&#1082;&#1083; (&#1093;&#1086;&#1083;&#1086;&#1076;&#1080;&#1083;&#1100;&#1085;&#1080;&#1082;, &#1088;&#1086;&#1091;&#1090;&#1077;&#1088;)</text></g><!--class ScheduledAppliance--><g class="entity" data-entity="ScheduledAppliance" data-source-line="20" data-uid="ent0006" id="entity_ScheduledAppliance"><rect fill="#F1F1F1" height="96.8906" rx="4" ry="4" style="stroke:#181818;stroke-width:0.5;" width="187.9844" x="1365" y="370.2969"/><ellipse cx="1386.2424" cy="386.2969" fill="#ADD1B2" rx="11" ry="11" style="stroke:#181818;stroke-width:1;"/><path d="M1389.2112,391.9375 Q1388.6331,392.2344 1387.9924,392.375 Q1387.3518,392.5313 1386.6487,392.5313 Q1384.1487,392.5313 1382.8206,390.8906 Q1381.5081,389.2344 1381.5081,386.1094 Q1381.5081,382.9844 1382.8206,381.3281 Q1384.1487,379.6719 1386.6487,379.6719 Q1387.3518,379.6719 1387.9924,379.8281 Q1388.6487,379.9844 1389.2112,380.2813 L1389.2112,383 Q1388.5862,382.4219 1387.9924,382.1563 Q1387.3987,381.875 1386.7737,381.875 Q1385.4299,381.875 1384.7424,382.9531 Q1384.0549,384.0156 1384.0549,386.1094 Q1384.0549,388.2031 1384.7424,389.2813 Q1385.4299,390.3438 1386.7737,390.3438 Q1387.3987,390.3438 1387.9924,390.0781 Q1388.5862,389.7969 1389.2112,389.2188 L1389.2112,391.9375 Z " fill="#000000"/><text fill="#000000" font-family="sans-serif" font-size="14" lengthAdjust="spacing" textLength="142.1123" x="1401.6296" y="391.1436">ScheduledAppliance</text><line style="stroke:#181818;stroke-width:0.5;" x1="1366" x2="1551.9844" y1="402.2969" y2="402.2969"/><text fill="#000000" font-family="sans-serif" font-size="14" lengthAdjust="spacing" textLength="175.9844" x="1371" y="419.292">&#1055;&#1086; &#1088;&#1072;&#1089;&#1087;&#1080;&#1089;&#1072;&#1085;&#1080;&#1102; + &#1089;&#1076;&#1074;&#1080;&#1075;</text><text fill="#000000" font-family="sans-serif" font-size="14" lengthAdjust="spacing" textLength="113.4287" x="1371" y="435.5889">+can_shift: bool</text><line style="stroke:#181818;stroke-width:0.5;" x1="1366" x2="1551.9844" y1="442.8906" y2="442.8906"/><text fill="#000000" font-family="sans-serif" font-size="14" lengthAdjust="spacing" textLength="148.2031" x="1371" y="459.8857">+try_shift(new_start)</text></g><!--class PeakAppliance--><g class="entity" data-entity="PeakAppliance" data-source-line="26" data-uid="ent0007" id="entity_PeakAppliance"><rect fill="#F1F1F1" height="64.2969" rx="4" ry="4" style="stroke:#181818;stroke-width:0.5;" width="174.9619" x="562.5" y="386.7969"/><ellipse cx="595.6472" cy="402.7969" fill="#ADD1B2" rx="11" ry="11" style="stroke:#181818;stroke-width:1;"/><path d="M598.616,408.4375 Q598.0378,408.7344 597.3972,408.875 Q596.7566,409.0313 596.0535,409.0313 Q593.5535,409.0313 592.2253,407.3906 Q590.9128,405.7344 590.9128,402.6094 Q590.9128,399.4844 592.2253,397.8281 Q593.5535,396.1719 596.0535,396.1719 Q596.7566,396.1719 597.3972,396.3281 Q598.0535,396.4844 598.616,396.7813 L598.616,399.5 Q597.991,398.9219 597.3972,398.6563 Q596.8035,398.375 596.1785,398.375 Q594.8347,398.375 594.1472,399.4531 Q593.4597,400.5156 593.4597,402.6094 Q593.4597,404.7031 594.1472,405.7813 Q594.8347,406.8438 596.1785,406.8438 Q596.8035,406.8438 597.3972,406.5781 Q597.991,406.2969 598.616,405.7188 L598.616,408.4375 Z " fill="#000000"/><text fill="#000000" font-family="sans-serif" font-size="14" lengthAdjust="spacing" textLength="102.6348" x="613.6799" y="407.6436">PeakAppliance</text><line style="stroke:#181818;stroke-width:0.5;" x1="563.5" x2="736.4619" y1="418.7969" y2="418.7969"/><text fill="#000000" font-family="sans-serif" font-size="14" lengthAdjust="spacing" textLength="162.9619" x="568.5" y="435.792">&#1055;&#1080;&#1082;&#1086;&#1074;&#1086;&#1077; &#1087;&#1086;&#1090;&#1088;&#1077;&#1073;&#1083;&#1077;&#1085;&#1080;&#1077;</text><line style="stroke:#181818;stroke-width:0.5;" x1="563.5" x2="736.4619" y1="443.0938" y2="443.0938"/></g><!--class TemperatureSensitiveAppliance--><g class="entity" data-entity="TemperatureSensitiveAppliance" data-source-line="30" data-uid="ent0008" id="entity_TemperatureSensitiveAppliance"><rect fill="#F1F1F1" height="80.5938" rx="4" ry="4" style="stroke:#181818;stroke-width:0.5;" width="256.0957" x="773" y="378.2969"/><ellipse cx="788" cy="394.2969" fill="#ADD1B2" rx="11" ry="11" style="stroke:#181818;stroke-width:1;"/><path d="M790.9688,399.9375 Q790.3906,400.2344 789.75,400.375 Q789.1094,400.5313 788.4063,400.5313 Q785.9063,400.5313 784.5781,398.8906 Q783.2656,397.2344 783.2656,394.1094 Q783.2656,390.9844 784.5781,389.3281 Q785.9063,387.6719 788.4063,387.6719 Q789.1094,387.6719 789.75,387.8281 Q790.4063,387.9844 790.9688,388.2813 L790.9688,391 Q790.3438,390.4219 789.75,390.1563 Q789.1563,389.875 788.5313,389.875 Q787.1875,389.875 786.5,390.9531 Q785.8125,392.0156 785.8125,394.1094 Q785.8125,396.2031 786.5,397.2813 Q787.1875,398.3438 788.5313,398.3438 Q789.1563,398.3438 789.75,398.0781 Q790.3438,397.7969 790.9688,397.2188 L790.9688,399.9375 Z " fill="#000000"/><text fill="#000000" font-family="sans-serif" font-size="14" lengthAdjust="spacing" textLength="224.0957" x="802" y="399.1436">TemperatureSensitiveAppliance</text><line style="stroke:#181818;stroke-width:0.5;" x1="774" x2="1028.0957" y1="410.2969" y2="410.2969"/><text fill="#000000" font-family="sans-serif" font-size="14" lengthAdjust="spacing" textLength="135.5293" x="779" y="427.292">&#1047;&#1072;&#1074;&#1080;&#1089;&#1080;&#1090; &#1086;&#1090; &#1089;&#1077;&#1079;&#1086;&#1085;&#1072;</text><text fill="#000000" font-family="sans-serif" font-size="14" lengthAdjust="spacing" textLength="145.6055" x="779" y="443.5889">+appliance_type: str</text><line style="stroke:#181818;stroke-width:0.5;" x1="774" x2="1028.0957" y1="450.8906" y2="450.8906"/></g><!--class Battery--><g class="entity" data-entity="Battery" data-source-line="35" data-uid="ent0009" id="entity_Battery"><rect fill="#F1F1F1" height="113.1875" rx="4" ry="4" style="stroke:#181818;stroke-width:0.5;" width="197.7666" x="329" y="362.2969"/><ellipse cx="397.7251" cy="378.2969" fill="#ADD1B2" rx="11" ry="11" style="stroke:#181818;stroke-width:1;"/><path d="M400.6938,383.9375 Q400.1157,384.2344 399.4751,384.375 Q398.8345,384.5313 398.1313,384.5313 Q395.6313,384.5313 394.3032,382.8906 Q392.9907,381.2344 392.9907,378.1094 Q392.9907,374.9844 394.3032,373.3281 Q395.6313,371.6719 398.1313,371.6719 Q398.8345,371.6719 399.4751,371.8281 Q400.1313,371.9844 400.6938,372.2813 L400.6938,375 Q400.0688,374.4219 399.4751,374.1563 Q398.8813,373.875 398.2563,373.875 Q396.9126,373.875 396.2251,374.9531 Q395.5376,376.0156 395.5376,378.1094 Q395.5376,380.2031 396.2251,381.2813 Q396.9126,382.3438 398.2563,382.3438 Q398.8813,382.3438 399.4751,382.0781 Q400.0688,381.7969 400.6938,381.2188 L400.6938,383.9375 Z " fill="#000000"/><text fill="#000000" font-family="sans-serif" font-size="14" lengthAdjust="spacing" textLength="51.8164" x="418.2251" y="383.1436">Battery</text><line style="stroke:#181818;stroke-width:0.5;" x1="330" x2="525.7666" y1="394.2969" y2="394.2969"/><text fill="#000000" font-family="sans-serif" font-size="14" lengthAdjust="spacing" textLength="147.1504" x="335" y="411.292">+capacity, efficiency</text><text fill="#000000" font-family="sans-serif" font-size="14" lengthAdjust="spacing" textLength="158.8125" x="335" y="427.5889">+current_charge: float</text><line style="stroke:#181818;stroke-width:0.5;" x1="330" x2="525.7666" y1="434.8906" y2="434.8906"/><text fill="#000000" font-family="sans-serif" font-size="14" lengthAdjust="spacing" textLength="165.6963" x="335" y="451.8857">+charge(amount): float</text><text fill="#000000" font-family="sans-serif" font-size="14" lengthAdjust="spacing" textLength="185.7666" x="335" y="468.1826">+discharge(amount): float</text></g><!--class HouseholdAgent--><g class="entity" data-entity="HouseholdAgent" data-source-line="42" data-uid="ent0010" id="entity_HouseholdAgent"><rect fill="#F1F1F1" height="96.8906" rx="4" ry="4" style="stroke:#181818;stroke-width:0.5;" width="203.5566" x="424" y="141.7969"/><ellipse cx="464.2132" cy="157.7969" fill="#ADD1B2" rx="11" ry="11" style="stroke:#181818;stroke-width:1;"/><path d="M467.1819,163.4375 Q466.6038,163.7344 465.9632,163.875 Q465.3226,164.0313 464.6194,164.0313 Q462.1194,164.0313 460.7913,162.3906 Q459.4788,160.7344 459.4788,157.6094 Q459.4788,154.4844 460.7913,152.8281 Q462.1194,151.1719 464.6194,151.1719 Q465.3226,151.1719 465.9632,151.3281 Q466.6194,151.4844 467.1819,151.7813 L467.1819,154.5 Q466.5569,153.9219 465.9632,153.6563 Q465.3694,153.375 464.7444,153.375 Q463.4007,153.375 462.7132,154.4531 Q462.0257,155.5156 462.0257,157.6094 Q462.0257,159.7031 462.7132,160.7813 Q463.4007,161.8438 464.7444,161.8438 Q465.3694,161.8438 465.9632,161.5781 Q466.5569,161.2969 467.1819,160.7188 L467.1819,163.4375 Z " fill="#000000"/><text fill="#000000" font-family="sans-serif" font-size="14" lengthAdjust="spacing" textLength="115.5273" x="483.8161" y="162.6436">HouseholdAgent</text><line style="stroke:#181818;stroke-width:0.5;" x1="425" x2="626.5566" y1="173.7969" y2="173.7969"/><text fill="#000000" font-family="sans-serif" font-size="14" lengthAdjust="spacing" textLength="191.5566" x="430" y="190.792">+agent_id, household_type</text><text fill="#000000" font-family="sans-serif" font-size="14" lengthAdjust="spacing" textLength="120.5586" x="430" y="207.0889">+appliances: List</text><line style="stroke:#181818;stroke-width:0.5;" x1="425" x2="626.5566" y1="214.3906" y2="214.3906"/><text fill="#000000" font-family="sans-serif" font-size="14" lengthAdjust="spacing" textLength="181.665" x="430" y="231.3857">+measure_consumption()</text></g><!--class SmartHouseholdAgent--><g class="entity" data-entity="SmartHouseholdAgent" data-source-line="48" data-uid="ent0011" id="entity_SmartHouseholdAgent"><rect fill="#F1F1F1" height="96.8906" rx="4" ry="4" style="stroke:#181818;stroke-width:0.5;" width="189.876" x="46" y="370.2969"/><ellipse cx="61" cy="386.2969" fill="#ADD1B2" rx="11" ry="11" style="stroke:#181818;stroke-width:1;"/><path d="M63.9688,391.9375 Q63.3906,392.2344 62.75,392.375 Q62.1094,392.5313 61.4063,392.5313 Q58.9063,392.5313 57.5781,390.8906 Q56.2656,389.2344 56.2656,386.1094 Q56.2656,382.9844 57.5781,381.3281 Q58.9063,379.6719 61.4063,379.6719 Q62.1094,379.6719 62.75,379.8281 Q63.4063,379.9844 63.9688,380.2813 L63.9688,383 Q63.3438,382.4219 62.75,382.1563 Q62.1563,381.875 61.5313,381.875 Q60.1875,381.875 59.5,382.9531 Q58.8125,384.0156 58.8125,386.1094 Q58.8125,388.2031 59.5,389.2813 Q60.1875,390.3438 61.5313,390.3438 Q62.1563,390.3438 62.75,390.0781 Q63.3438,389.7969 63.9688,389.2188 L63.9688,391.9375 Z " fill="#000000"/><text fill="#000000" font-family="sans-serif" font-size="14" lengthAdjust="spacing" textLength="157.876" x="75" y="391.1436">SmartHouseholdAgent</text><line style="stroke:#181818;stroke-width:0.5;" x1="47" x2="234.876" y1="402.2969" y2="402.2969"/><text fill="#000000" font-family="sans-serif" font-size="14" lengthAdjust="spacing" textLength="123.8125" x="52" y="419.292">+battery: Battery</text><line style="stroke:#181818;stroke-width:0.5;" x1="47" x2="234.876" y1="426.5938" y2="426.5938"/><text fill="#000000" font-family="sans-serif" font-size="14" lengthAdjust="spacing" textLength="120.2578" x="52" y="443.5889">+optimize_step()</text><text fill="#000000" font-family="sans-serif" font-size="14" lengthAdjust="spacing" textLength="58.4199" x="52" y="459.8857">+reset()</text></g><!--class SmartGridAgent--><g class="entity" data-entity="SmartGridAgent" data-source-line="54" data-uid="ent0012" id="entity_SmartGridAgent"><rect fill="#F1F1F1" height="80.5938" rx="4" ry="4" style="stroke:#181818;stroke-width:0.5;" width="271.499" x="46.5" y="149.7969"/><ellipse cx="121.415" cy="165.7969" fill="#ADD1B2" rx="11" ry="11" style="stroke:#181818;stroke-width:1;"/><path d="M124.3838,171.4375 Q123.8057,171.7344 123.165,171.875 Q122.5244,172.0313 121.8213,172.0313 Q119.3213,172.0313 117.9932,170.3906 Q116.6807,168.7344 116.6807,165.6094 Q116.6807,162.4844 117.9932,160.8281 Q119.3213,159.1719 121.8213,159.1719 Q122.5244,159.1719 123.165,159.3281 Q123.8213,159.4844 124.3838,159.7813 L124.3838,162.5 Q123.7588,161.9219 123.165,161.6563 Q122.5713,161.375 121.9463,161.375 Q120.6025,161.375 119.915,162.4531 Q119.2275,163.5156 119.2275,165.6094 Q119.2275,167.7031 119.915,168.7813 Q120.6025,169.8438 121.9463,169.8438 Q122.5713,169.8438 123.165,169.5781 Q123.7588,169.2969 124.3838,168.7188 L124.3838,171.4375 Z " fill="#000000"/><text fill="#000000" font-family="sans-serif" font-size="14" lengthAdjust="spacing" textLength="113.1689" x="141.915" y="170.6436">SmartGridAgent</text><line style="stroke:#181818;stroke-width:0.5;" x1="47.5" x2="316.999" y1="181.7969" y2="181.7969"/><text fill="#000000" font-family="sans-serif" font-size="14" lengthAdjust="spacing" textLength="93.1055" x="52.5" y="198.792">+agents: List</text><line style="stroke:#181818;stroke-width:0.5;" x1="47.5" x2="316.999" y1="206.0938" y2="206.0938"/><text fill="#000000" font-family="sans-serif" font-size="14" lengthAdjust="spacing" textLength="259.499" x="52.5" y="223.0889">+step(timestamp, day_type, season)</text></g><!--class Utils--><g class="entity" data-entity="Utils" data-source-line="71" data-uid="ent0022" id="entity_Utils"><rect fill="#F1F1F1" height="137.75" rx="4" ry="4" style="stroke:#181818;stroke-width:0.5;" width="247.5869" x="1657" y="121.2969"/><ellipse cx="1743.0269" cy="141.4297" fill="#ADD1B2" rx="11" ry="11" style="stroke:#181818;stroke-width:1;"/><path d="M1745.9956,147.0703 Q1745.4175,147.3672 1744.7769,147.5078 Q1744.1362,147.6641 1743.4331,147.6641 Q1740.9331,147.6641 1739.605,146.0234 Q1738.2925,144.3672 1738.2925,141.2422 Q1738.2925,138.1172 1739.605,136.4609 Q1740.9331,134.8047 1743.4331,134.8047 Q1744.1362,134.8047 1744.7769,134.9609 Q1745.4331,135.1172 1745.9956,135.4141 L1745.9956,138.1328 Q1745.3706,137.5547 1744.7769,137.2891 Q1744.1831,137.0078 1743.5581,137.0078 Q1742.2144,137.0078 1741.5269,138.0859 Q1740.8394,139.1484 1740.8394,141.2422 Q1740.8394,143.3359 1741.5269,144.4141 Q1742.2144,145.4766 1743.5581,145.4766 Q1744.1831,145.4766 1744.7769,145.2109 Q1745.3706,144.9297 1745.9956,144.3516 L1745.9956,147.0703 Z " fill="#000000"/><text fill="#000000" font-family="sans-serif" font-size="12" font-style="italic" lengthAdjust="spacing" textLength="71.0332" x="1761.5269" y="137.4355">&#171;&#1092;&#1091;&#1085;&#1082;&#1094;&#1080;&#1080;&#187;</text><text fill="#000000" font-family="sans-serif" font-size="14" lengthAdjust="spacing" textLength="30.8096" x="1781.6387" y="153.2607">Utils</text><line style="stroke:#181818;stroke-width:0.5;" x1="1658" x2="1903.5869" y1="161.5625" y2="161.5625"/><line style="stroke:#181818;stroke-width:0.5;" x1="1658" x2="1903.5869" y1="169.5625" y2="169.5625"/><text fill="#000000" font-family="sans-serif" font-size="14" lengthAdjust="spacing" textLength="102.2725" x="1663" y="186.5576">+set_seed(42)</text><text fill="#000000" font-family="sans-serif" font-size="14" lengthAdjust="spacing" textLength="184.0918" x="1663" y="202.8545">+asymmetric_profit_loss()</text><text fill="#000000" font-family="sans-serif" font-size="14" lengthAdjust="spacing" textLength="235.5869" x="1663" y="219.1514">+evaluate_and_plot_predictions()</text><text fill="#000000" font-family="sans-serif" font-size="14" lengthAdjust="spacing" textLength="219.2217" x="1663" y="235.4482">+plot_training_history_with_lr()</text><text fill="#000000" font-family="sans-serif" font-size="14" lengthAdjust="spacing" textLength="149.1602" x="1663" y="251.7451">+create_sequences()</text></g><!--reverse link ElectricAppliance to EssentialAppliance--><g class="link" data-entity-1="ElectricAppliance" data-entity-2="EssentialAppliance" data-source-line="59" data-uid="lnk13" id="link_ElectricAppliance_EssentialAppliance"><path codeLine="59" d="M993.0647,261.7459 C1049.9347,305.2659 1110.51,351.6169 1156.13,386.5269" fill="none" id="ElectricAppliance-backto-EssentialAppliance" style="stroke:#181818;stroke-width:1;"/><polygon fill="none" points="978.77,250.8069,989.4183,266.5108,996.711,256.981,978.77,250.8069" style="stroke:#181818;stroke-width:1;"/></g><!--reverse link ElectricAppliance to ScheduledAppliance--><g class="link" data-entity-1="ElectricAppliance" data-entity-2="ScheduledAppliance" data-source-line="60" data-uid="lnk14" id="link_ElectricAppliance_ScheduledAppliance"><path codeLine="60" d="M1014.9647,231.3695 C1106.2647,264.0895 1229.36,310.0969 1348,362.2969 C1353.72,364.8169 1359.57,367.4669 1365.44,370.2069" fill="none" id="ElectricAppliance-backto-ScheduledAppliance" style="stroke:#181818;stroke-width:1;"/><polygon fill="none" points="998.02,225.2969,1012.9405,237.0177,1016.9889,225.7213,998.02,225.2969" style="stroke:#181818;stroke-width:1;"/></g><!--reverse link ElectricAppliance to PeakAppliance--><g class="link" data-entity-1="ElectricAppliance" data-entity-2="PeakAppliance" data-source-line="61" data-uid="lnk15" id="link_ElectricAppliance_PeakAppliance"><path codeLine="61" d="M821.6875,262.8669 C773.4675,306.3869 723.34,351.6169 684.65,386.5269" fill="none" id="ElectricAppliance-backto-PeakAppliance" style="stroke:#181818;stroke-width:1;"/><polygon fill="none" points="835.05,250.8069,817.6675,258.4127,825.7075,267.3211,835.05,250.8069" style="stroke:#181818;stroke-width:1;"/></g><!--reverse link ElectricAppliance to TemperatureSensitiveAppliance--><g class="link" data-entity-1="ElectricAppliance" data-entity-2="TemperatureSensitiveAppliance" data-source-line="62" data-uid="lnk16" id="link_ElectricAppliance_TemperatureSensitiveAppliance"><path codeLine="62" d="M901,268.8069 C901,309.0469 901,343.0669 901,378.2769" fill="none" id="ElectricAppliance-backto-TemperatureSensitiveAppliance" style="stroke:#181818;stroke-width:1;"/><polygon fill="none" points="901,250.8069,895,268.8069,907,268.8069,901,250.8069" style="stroke:#181818;stroke-width:1;"/></g><!--reverse link HouseholdAgent to SmartHouseholdAgent--><g class="link" data-entity-1="HouseholdAgent" data-entity-2="SmartHouseholdAgent" data-source-line="64" data-uid="lnk17" id="link_HouseholdAgent_SmartHouseholdAgent"><path codeLine="64" d="M433.3411,248.3033 C398.7011,269.4733 372.62,285.1669 335,307.2969 C299.42,328.2269 259.87,350.8669 225.81,370.1769" fill="none" id="HouseholdAgent-backto-SmartHouseholdAgent" style="stroke:#181818;stroke-width:1;"/><polygon fill="none" points="448.7,238.9169,430.2123,243.1837,436.47,253.423,448.7,238.9169" style="stroke:#181818;stroke-width:1;"/></g><!--reverse link HouseholdAgent to ElectricAppliance--><g class="link" data-entity-1="HouseholdAgent" data-entity-2="ElectricAppliance" data-source-line="65" data-uid="lnk18" id="link_HouseholdAgent_ElectricAppliance"><path codeLine="65" d="M640.47,190.2969 C695.12,190.2969 749.99,190.2969 803.82,190.2969" fill="none" id="HouseholdAgent-backto-ElectricAppliance" style="stroke:#181818;stroke-width:1;"/><polygon fill="#181818" points="628.47,190.2969,634.47,194.2969,640.47,190.2969,634.47,186.2969,628.47,190.2969" style="stroke:#181818;stroke-width:1;"/><text fill="#000000" font-family="sans-serif" font-size="13" lengthAdjust="spacing" textLength="68.0723" x="682" y="183.3638">&#1089;&#1086;&#1076;&#1077;&#1088;&#1078;&#1080;&#1090;</text><text fill="#000000" font-family="sans-serif" font-size="13" lengthAdjust="spacing" textLength="9.7246" x="786.1274" y="186.7055">N</text></g><!--reverse link SmartHouseholdAgent to Battery--><g class="link" data-entity-1="SmartHouseholdAgent" data-entity-2="Battery" data-source-line="66" data-uid="lnk19" id="link_SmartHouseholdAgent_Battery"><path codeLine="66" d="M248.17,418.7969 C277.87,418.7969 298.69,418.7969 328.66,418.7969" fill="none" id="SmartHouseholdAgent-backto-Battery" style="stroke:#181818;stroke-width:1;"/><polygon fill="#181818" points="236.17,418.7969,242.17,422.7969,248.17,418.7969,242.17,414.7969,236.17,418.7969" style="stroke:#181818;stroke-width:1;"/><text fill="#000000" font-family="sans-serif" font-size="13" lengthAdjust="spacing" textLength="56.4941" x="254.5" y="411.8638">&#1074;&#1083;&#1072;&#1076;&#1077;&#1077;&#1090;</text><text fill="#000000" font-family="sans-serif" font-size="13" lengthAdjust="spacing" textLength="8.271" x="312.7673" y="415.2875">1</text></g><!--reverse link SmartGridAgent to SmartHouseholdAgent--><g class="link" data-entity-1="SmartGridAgent" data-entity-2="SmartHouseholdAgent" data-source-line="67" data-uid="lnk20" id="link_SmartGridAgent_SmartHouseholdAgent"><path codeLine="67" d="M172.6722,242.8149 C165.6422,281.6449 157.08,328.9669 149.6,370.2669" fill="none" id="SmartGridAgent-backto-SmartHouseholdAgent" style="stroke:#181818;stroke-width:1;"/><polygon fill="#181818" points="174.81,231.0069,169.8051,236.1983,172.6722,242.8149,177.6771,237.6235,174.81,231.0069" style="stroke:#181818;stroke-width:1;"/><text fill="#000000" font-family="sans-serif" font-size="13" lengthAdjust="spacing" textLength="71.7729" x="160" y="328.3638">&#1091;&#1087;&#1088;&#1072;&#1074;&#1083;&#1103;&#1077;&#1090;</text><text fill="#000000" font-family="sans-serif" font-size="13" lengthAdjust="spacing" textLength="9.7246" x="141.2645" y="359.1221">N</text></g><!--SRC=[ZLNRRXCn47tFLup2Iu04SPKWgf0Aj82445BXUUNiJh9MlVPYUua2LABbyeH0uWNU-8NIDX0LDVo2zuyORxBRf4aG3xciPtpcpF7nhDdcCcMQ9T1XuNPFgqn6TvLG6lenjrWpLTp4B59zBdlGPSBCHaB1Z5ctLlDEPl5XgEGMVubmUIPbYgibQhXPgrbk1OBxveRv6xUVlydVkr7-6Ton-qsFk_ck6xk3Dh0UIcikfGEu29dbml-jrL8YIX6eL-4wdDkukNbZunQygW6mZh6QXNR22pO4XaGjN4zJmPaC4TRMrk_SlNsxI0Q2bYp1Dj2cybabN38HfAgFkWrTePYTXkpb9jWhyskloe8xa20pcSQ0931PabgkPECyfUtKw6jAnnXYpPauvJFXuRvGsqDtw8xSFhW3hmKqI9WnQJAcnP7xdNzq9_Hxt0IIRPo_pVUyW6SAR8KnHfd0QA70TpU6GkzTzuVqtdNx7Yx_H3tGmn7L7Bd3QLCXau69UTUseQEKADlNWybgGs8_C9PfUwRw4sJRImeJQN-az1a25H_dUqHaw7vGRyEYf-4yp5DCKjJCafXRA0st_0Kkm7wb1WwAHaRv7dXGA2JyHMLEtFwKCokt1NQGLkSyK-iEinRreB93oCXXt0wQWDqk3pdAS526Cgtfz88mPhg7ypQOh3LOGbQtv-TZ4JUhmZD47gZCOAn4jEwDNV4fR1xmg0bncL2qShO_quP7t9Gb_yEAMmcTtugYdOaexLATwR8Ye8GkDvqzfWMUNzLeq2v5lw_vicxcgHPOX8jag2HjGiG6HODDCDI4aXNmaglykjLQSgLMvoxUZjMvSrvUdVPFhthQPoIUy5ZKVZ7pGalpNcnRK7zSNrAz3SMWF2gcw4z_2GXYsQ6UubofLtPl-o53uzRl9uHgx-cHNMZHm9UJwijWgVvRzyTF58-KVovGTcO6T3cp_No-jdbryrxXWeazdlaOZUBy7O6SkEFy0qs1qSnK9ai51Z5gNBzQ-eoPGPAW5o58jUfo6mXbJ6L3VC54nYm6J4P1AfIbB8nuwBr_cbK4Q5vpIU-o82ORAffgVMxZGEWgAzJeaGm-pz3VhQcxT_u2]--></g></svg>