<svg xmlns="http://www.w3.org/2000/svg" xmlns:xlink="http://www.w3.org/1999/xlink" contentStyleType="text/css" data-diagram-type="DESCRIPTION" height="934px" preserveAspectRatio="none" style="width:1120px;height:934px;background:#FFFFFF;" version="1.1" viewBox="0 0 1120 934" width="1120px" zoomAndPan="magnify"><title>&#1055;&#1086;&#1090;&#1086;&#1082; &#1076;&#1072;&#1085;&#1085;&#1099;&#1093;: &#1086;&#1090; &#1075;&#1077;&#1085;&#1077;&#1088;&#1072;&#1094;&#1080;&#1080; &#1082; &#1092;&#1080;&#1085;&#1072;&#1083;&#1100;&#1085;&#1086;&#1084;&#1091; &#1090;&#1091;&#1088;&#1085;&#1080;&#1088;&#1091;</title><defs/><g><g class="title" data-source-line="8"><text fill="#000000" font-family="sans-serif" font-size="14" font-weight="bold" lengthAdjust="spacing" textLength="425.5576" x="340.2952" y="22.9951">&#1055;&#1086;&#1090;&#1086;&#1082; &#1076;&#1072;&#1085;&#1085;&#1099;&#1093;: &#1086;&#1090; &#1075;&#1077;&#1085;&#1077;&#1088;&#1072;&#1094;&#1080;&#1080; &#1082; &#1092;&#1080;&#1085;&#1072;&#1083;&#1100;&#1085;&#1086;&#1084;&#1091; &#1090;&#1091;&#1088;&#1085;&#1080;&#1088;&#1091;</text></g><!--cluster CL_PKG--><g class="cluster" data-entity="CL_PKG" data-source-line="23" data-uid="ent0008" id="cluster_CL_PKG"><path d="M90,468.2969 L268.5645,468.2969 A6,6 0 0 1 272.5645,472.2969 L279.5645,490.5938 L368,490.5938 A4,4 0 0 1 372,494.5938 L372,567.2969 A4,4 0 0 1 368,571.2969 L90,571.2969 A4,4 0 0 1 86,567.2969 L86,472.2969 A4,4 0 0 1 90,468.2969" fill="#FFCC80" style="stroke:#000000;stroke-width:1.5;"/><line style="stroke:#000000;stroke-width:1.5;" x1="86" x2="279.5645" y1="490.5938" y2="490.5938"/><text fill="#000000" font-family="sans-serif" font-size="14" font-weight="bold" lengthAdjust="spacing" textLength="180.5645" x="90" y="483.292">&#1050;&#1083;&#1072;&#1089;&#1089;&#1080;&#1095;&#1077;&#1089;&#1082;&#1080;&#1077; &#1084;&#1086;&#1076;&#1077;&#1083;&#1080;</text></g><!--cluster DL_PKG--><g class="cluster" data-entity="DL_PKG" data-source-line="28" data-uid="ent0011" id="cluster_DL_PKG"><path d="M623,468.2969 L804.8799,468.2969 A6,6 0 0 1 808.8799,472.2969 L815.8799,490.5938 L834,490.5938 A4,4 0 0 1 838,494.5938 L838,699.7969 A4,4 0 0 1 834,703.7969 L623,703.7969 A4,4 0 0 1 619,699.7969 L619,472.2969 A4,4 0 0 1 623,468.2969" fill="#FFB74D" style="stroke:#000000;stroke-width:1.5;"/><line style="stroke:#000000;stroke-width:1.5;" x1="619" x2="815.8799" y1="490.5938" y2="490.5938"/><text fill="#000000" font-family="sans-serif" font-size="14" font-weight="bold" lengthAdjust="spacing" textLength="183.8799" x="623" y="483.292">&#1053;&#1077;&#1081;&#1088;&#1086;&#1089;&#1077;&#1090;&#1077;&#1074;&#1099;&#1077; &#1084;&#1086;&#1076;&#1077;&#1083;&#1080;</text></g><!--entity NB03--><g class="entity" data-entity="NB03" data-source-line="24" data-uid="ent0009" id="entity_NB03"><rect fill="#F1F1F1" height="36.2969" rx="4" ry="4" style="stroke:#181818;stroke-width:0.5;" width="115.6826" x="232" y="511.2969"/><text fill="#000000" font-family="sans-serif" font-size="14" lengthAdjust="spacing" textLength="95.6826" x="242" y="534.292">03_classic_ml</text></g><!--entity NB04--><g class="entity" data-entity="NB04" data-source-line="25" data-uid="ent0010" id="entity_NB04"><rect fill="#F1F1F1" height="36.2969" rx="4" ry="4" style="stroke:#181818;stroke-width:0.5;" width="94.0811" x="118" y="511.2969"/><text fill="#000000" font-family="sans-serif" font-size="14" lengthAdjust="spacing" textLength="74.0811" x="128" y="534.292">04_optuna</text></g><!--entity NB05--><g class="entity" data-entity="NB05" data-source-line="29" data-uid="ent0012" id="entity_NB05"><rect fill="#F1F1F1" height="36.2969" rx="4" ry="4" style="stroke:#181818;stroke-width:0.5;" width="68.3301" x="651" y="511.2969"/><text fill="#000000" font-family="sans-serif" font-size="14" lengthAdjust="spacing" textLength="48.3301" x="661" y="534.292">05_gru</text></g><!--entity NB06--><g class="entity" data-entity="NB06" data-source-line="30" data-uid="ent0013" id="entity_NB06"><rect fill="#F1F1F1" height="36.2969" rx="4" ry="4" style="stroke:#181818;stroke-width:0.5;" width="75.125" x="739.5" y="511.2969"/><text fill="#000000" font-family="sans-serif" font-size="14" lengthAdjust="spacing" textLength="55.125" x="749.5" y="534.292">06_lstm</text></g><!--entity NB07--><g class="entity" data-entity="NB07" data-source-line="31" data-uid="ent0014" id="entity_NB07"><rect fill="#F1F1F1" height="36.2969" rx="4" ry="4" style="stroke:#181818;stroke-width:0.5;" width="89.3916" x="650.5" y="643.7969"/><text fill="#000000" font-family="sans-serif" font-size="14" lengthAdjust="spacing" textLength="69.3916" x="660.5" y="666.792">07_hybrid</text></g><!--entity AGENTS--><g class="entity" data-entity="AGENTS" data-source-line="11" data-uid="ent0002" id="entity_AGENTS"><rect fill="#C8E6C9" height="36.2969" rx="4" ry="4" style="stroke:#181818;stroke-width:0.5;" width="89.3574" x="659.5" y="44.2969"/><text fill="#000000" font-family="sans-serif" font-size="14" lengthAdjust="spacing" textLength="69.3574" x="669.5" y="67.292">agents.py</text></g><!--entity UTILS--><g class="entity" data-entity="UTILS" data-source-line="12" data-uid="ent0003" id="entity_UTILS"><rect fill="#BBDEFB" height="36.2969" rx="4" ry="4" style="stroke:#181818;stroke-width:0.5;" width="71.0576" x="749.5" y="376.2969"/><text fill="#000000" font-family="sans-serif" font-size="14" lengthAdjust="spacing" textLength="51.0576" x="759.5" y="399.292">utils.py</text></g><!--entity NB01--><g class="entity" data-entity="NB01" data-source-line="15" data-uid="ent0004" id="entity_NB01"><rect fill="#FFE0B2" height="36.2969" rx="4" ry="4" style="stroke:#181818;stroke-width:0.5;" width="159.4873" x="327.5" y="127.2969"/><text fill="#000000" font-family="sans-serif" font-size="14" lengthAdjust="spacing" textLength="139.4873" x="337.5" y="150.292">01_data_generation</text></g><!--entity NB02--><g class="entity" data-entity="NB02" data-source-line="16" data-uid="ent0005" id="entity_NB02"><rect fill="#FFE0B2" height="36.2969" rx="4" ry="4" style="stroke:#181818;stroke-width:0.5;" width="186.4346" x="314" y="293.2969"/><text fill="#000000" font-family="sans-serif" font-size="14" lengthAdjust="spacing" textLength="166.4346" x="324" y="316.292">02_feature_engineering</text></g><!--entity RAW--><g class="entity" data-entity="RAW" data-source-line="19" data-uid="ent0006" id="entity_RAW"><rect fill="#E8EAF6" height="36.2969" rx="35" ry="35" style="stroke:#181818;stroke-width:0.5;" width="112.0459" x="351" y="210.2969"/><text fill="#000000" font-family="sans-serif" font-size="14" lengthAdjust="spacing" textLength="92.0459" x="361" y="233.292">raw_data.csv</text></g><!--entity FEAT--><g class="entity" data-entity="FEAT" data-source-line="20" data-uid="ent0007" id="entity_FEAT"><rect fill="#E8EAF6" height="36.2969" rx="35" ry="35" style="stroke:#181818;stroke-width:0.5;" width="105.873" x="354" y="376.2969"/><text fill="#000000" font-family="sans-serif" font-size="14" lengthAdjust="spacing" textLength="85.873" x="364" y="399.292">features.csv</text></g><!--entity WEIGHTS--><g class="entity" data-entity="WEIGHTS" data-source-line="35" data-uid="ent0015" id="entity_WEIGHTS"><rect fill="#FCE4EC" height="68.8906" rx="35" ry="35" style="stroke:#181818;stroke-width:0.5;" width="169.1738" x="115.5" y="627.2969"/><text fill="#000000" font-family="sans-serif" font-size="14" lengthAdjust="spacing" textLength="109.8057" x="125.5" y="650.292">model_weights/</text><text fill="#000000" font-family="sans-serif" font-size="14" lengthAdjust="spacing" textLength="149.1738" x="125.5" y="666.5889">6x .joblib + 3x .keras</text><text fill="#000000" font-family="sans-serif" font-size="14" lengthAdjust="spacing" textLength="79.6523" x="125.5" y="682.8857">+ 3x scaler</text></g><!--entity NB08--><g class="entity" data-entity="NB08" data-source-line="38" data-uid="ent0016" id="entity_NB08"><rect fill="#EF6C00" height="68.8906" rx="4" ry="4" style="stroke:#181818;stroke-width:0.5;" width="170.2881" x="288" y="759.7969"/><text fill="#000000" font-family="sans-serif" font-size="14" lengthAdjust="spacing" textLength="97.7949" x="298" y="782.792">08_simulation</text><text fill="#000000" font-family="sans-serif" font-size="14" lengthAdjust="spacing" textLength="145.1475" x="298" y="799.0889">9 &#1084;&#1086;&#1076;&#1077;&#1083;&#1077;&#1081;, 30 &#1076;&#1085;&#1077;&#1081;</text><text fill="#000000" font-family="sans-serif" font-size="14" lengthAdjust="spacing" textLength="150.2881" x="298" y="815.3857">&#1058;&#1091;&#1088;&#1085;&#1080;&#1088;: &#1101;&#1082;&#1086;&#1085;&#1086;&#1084;&#1080;&#1103; %</text></g><!--entity PLOTS--><g class="entity" data-entity="PLOTS" data-source-line="40" data-uid="ent0017" id="entity_PLOTS"><rect fill="#E8EAF6" height="52.5938" rx="35" ry="35" style="stroke:#181818;stroke-width:0.5;" width="124.3506" x="7" y="875.7969"/><ellipse cx="22.5" cy="894.5938" fill="#000000" rx="2.5" ry="2.5"/><text fill="#000000" font-family="sans-serif" font-size="14" lengthAdjust="spacing" textLength="31.0967" x="29" y="898.792">.png</text><text fill="#000000" font-family="sans-serif" font-size="14" lengthAdjust="spacing" textLength="104.3506" x="17" y="915.0889">(16 &#1075;&#1088;&#1072;&#1092;&#1080;&#1082;&#1086;&#1074;)</text></g><!--link AGENTS to NB01--><g class="link" data-entity-1="AGENTS" data-entity-2="NB01" data-source-line="43" data-uid="lnk18" id="link_AGENTS_NB01"><path d="M659.21,75.5069 C608.74,89.2769 532.1086,110.1783 475.3086,125.6683" fill="none" id="AGENTS-to-NB01" style="stroke:#181818;stroke-width:1;"/><polygon fill="#181818" points="469.52,127.2469,479.2553,128.738,474.3438,125.9314,477.1505,121.0199,469.52,127.2469" style="stroke:#181818;stroke-width:1;"/><text fill="#000000" font-family="sans-serif" font-size="13" lengthAdjust="spacing" textLength="159.7515" x="583" y="108.3638">&#1080;&#1084;&#1087;&#1086;&#1088;&#1090; SmartGridAgent</text></g><!--link NB01 to RAW--><g class="link" data-entity-1="NB01" data-entity-2="RAW" data-source-line="44" data-uid="lnk19" id="link_NB01_RAW"><path d="M407,163.4769 C407,177.2169 407,190.4069 407,204.1469" fill="none" id="NB01-to-RAW" style="stroke:#181818;stroke-width:1;"/><polygon fill="#181818" points="407,210.1469,411,201.1469,407,205.1469,403,201.1469,407,210.1469" style="stroke:#181818;stroke-width:1;"/><text fill="#000000" font-family="sans-serif" font-size="13" lengthAdjust="spacing" textLength="70.9033" x="408" y="191.3638">&#1089;&#1086;&#1093;&#1088;&#1072;&#1085;&#1103;&#1077;&#1090;</text></g><!--link RAW to NB02--><g class="link" data-entity-1="RAW" data-entity-2="NB02" data-source-line="45" data-uid="lnk20" id="link_RAW_NB02"><path d="M407,246.4769 C407,260.2169 407,273.4069 407,287.1469" fill="none" id="RAW-to-NB02" style="stroke:#181818;stroke-width:1;"/><polygon fill="#181818" points="407,293.1469,411,284.1469,407,288.1469,403,284.1469,407,293.1469" style="stroke:#181818;stroke-width:1;"/><text fill="#000000" font-family="sans-serif" font-size="13" lengthAdjust="spacing" textLength="47.2393" x="408" y="274.3638">&#1095;&#1080;&#1090;&#1072;&#1077;&#1090;</text></g><!--link NB02 to FEAT--><g class="link" data-entity-1="NB02" data-entity-2="FEAT" data-source-line="46" data-uid="lnk21" id="link_NB02_FEAT"><path d="M407,329.4769 C407,343.2169 407,356.4069 407,370.1469" fill="none" id="NB02-to-FEAT" style="stroke:#181818;stroke-width:1;"/><polygon fill="#181818" points="407,376.1469,411,367.1469,407,371.1469,403,367.1469,407,376.1469" style="stroke:#181818;stroke-width:1;"/><text fill="#000000" font-family="sans-serif" font-size="13" lengthAdjust="spacing" textLength="70.9033" x="408" y="357.3638">&#1089;&#1086;&#1093;&#1088;&#1072;&#1085;&#1103;&#1077;&#1090;</text></g><!--link FEAT to CL_PKG--><g class="link" data-entity-1="FEAT" data-entity-2="CL_PKG" data-source-line="47" data-uid="lnk22" id="link_FEAT_CL_PKG"><path d="M353.93,405.3869 C301.59,415.3269 219.29,430.9169 148,444.2969 C128.89,447.8769 118.47,438.2769 105,452.2969 C102.1375,455.2769 99.807,458.6495 97.9217,462.2761 C96.979,464.0893 96.1477,465.966 95.4167,467.8889 C95.371,468.0091 97.4203,462.5069 97.3754,462.6274" fill="none" id="FEAT-to-CL_PKG" style="stroke:#181818;stroke-width:1;"/><polygon fill="#181818" points="95.2808,468.25,102.171,461.2126,97.0263,463.5645,94.6743,458.4198,95.2808,468.25" style="stroke:#181818;stroke-width:1;"/><text fill="#000000" font-family="sans-serif" font-size="13" lengthAdjust="spacing" textLength="47.2393" x="234" y="440.3638">&#1095;&#1080;&#1090;&#1072;&#1077;&#1090;</text></g><!--link FEAT to DL_PKG--><g class="link" data-entity-1="FEAT" data-entity-2="DL_PKG" data-source-line="48" data-uid="lnk23" id="link_FEAT_DL_PKG"><path d="M435.31,412.4169 C464.555,430.0969 511.4475,458.4444 551.5313,482.6756 C571.5731,494.7913 589.9128,505.8778 603.4933,514.0873 C606.8884,516.1397 609.9861,518.0123 612.7385,519.6762 C614.1147,520.5081 615.4047,521.2879 616.6023,522.0119 C617.2011,522.3739 617.7769,522.7219 618.3288,523.0556 C618.4668,523.139 613.4686,520.1175 613.6036,520.1991" fill="none" id="FEAT-to-DL_PKG" style="stroke:#181818;stroke-width:1;"/><polygon fill="#181818" points="618.7383,523.3031,613.1055,515.224,614.4594,520.7164,608.9669,522.0703,618.7383,523.3031" style="stroke:#181818;stroke-width:1;"/><text fill="#000000" font-family="sans-serif" font-size="13" lengthAdjust="spacing" textLength="47.2393" x="485" y="440.3638">&#1095;&#1080;&#1090;&#1072;&#1077;&#1090;</text></g><!--link UTILS to DL_PKG--><g class="link" data-entity-1="UTILS" data-entity-2="DL_PKG" data-source-line="49" data-uid="lnk24" id="link_UTILS_DL_PKG"><path d="M749.35,398.9769 C715.25,404.5069 665.11,418.2469 638,452.2969 C635.4263,455.5306 633.3145,459.0956 631.5907,462.8642 C631.1597,463.8064 630.753,464.7613 630.3694,465.7269 C630.1775,466.2097 629.9915,466.6952 629.8111,467.1831 C629.7209,467.4271 629.6321,467.6716 629.5446,467.9168 C629.5009,468.0393 631.4403,462.4991 631.3973,462.622" fill="none" id="UTILS-to-DL_PKG" style="stroke:#181818;stroke-width:1;"/><polygon fill="#181818" points="629.4146,468.2849,636.164,461.1124,631.0669,463.5658,628.6134,458.4687,629.4146,468.2849" style="stroke:#181818;stroke-width:1;"/><text fill="#000000" font-family="sans-serif" font-size="13" lengthAdjust="spacing" textLength="115.5718" x="667" y="440.3638">&#1080;&#1084;&#1087;&#1086;&#1088;&#1090; &#1092;&#1091;&#1085;&#1082;&#1094;&#1080;&#1081;</text></g><!--link CL_PKG to WEIGHTS--><g class="link" data-entity-1="CL_PKG" data-entity-2="WEIGHTS" data-source-line="50" data-uid="lnk25" id="link_CL_PKG_WEIGHTS"><path d="M98.2188,571.4496 C98.2746,571.6417 98.3311,571.8337 98.3883,572.0255 C98.617,572.7929 98.8568,573.5576 99.1083,574.3183 C99.6112,575.8398 100.1605,577.3455 100.7604,578.8247 C101.9603,581.7831 103.3625,584.6356 105,587.2969 C114.51,602.7469 123.7572,612.5377 138.1272,623.5477" fill="none" id="CL_PKG-to-WEIGHTS" style="stroke:#181818;stroke-width:1;"/><polygon fill="#181818" points="142.89,627.1969,138.1786,618.548,138.921,624.1559,133.3131,624.8984,142.89,627.1969" style="stroke:#181818;stroke-width:1;"/><text fill="#000000" font-family="sans-serif" font-size="13" lengthAdjust="spacing" textLength="105.8091" x="125" y="608.3638">&#1089;&#1086;&#1093;&#1088;&#1072;&#1085;&#1103;&#1077;&#1090; &#1074;&#1077;&#1089;&#1072;</text></g><!--link DL_PKG to WEIGHTS--><g class="link" data-entity-1="DL_PKG" data-entity-2="WEIGHTS" data-source-line="51" data-uid="lnk26" id="link_DL_PKG_WEIGHTS"><path d="M618.9581,535.9264 C618.8455,536.0048 618.7318,536.0839 618.6171,536.1637 C618.3877,536.3233 618.1542,536.4856 617.9167,536.6507 C617.4416,536.9809 616.9504,537.3221 616.4436,537.6737 C614.4165,539.0802 612.1406,540.6545 609.6545,542.3669 C599.7103,549.2163 586.4031,558.2744 572.2013,567.6394 C543.7975,586.3694 511.815,606.3269 496,612.2969 C427.55,638.1269 351.044,649.6588 290.564,655.3088" fill="none" id="DL_PKG-to-WEIGHTS" style="stroke:#181818;stroke-width:1;"/><polygon fill="#181818" points="284.59,655.8669,293.923,659.0124,289.5683,655.4018,293.1789,651.0471,284.59,655.8669" style="stroke:#181818;stroke-width:1;"/><text fill="#000000" font-family="sans-serif" font-size="13" lengthAdjust="spacing" textLength="105.8091" x="529" y="608.3638">&#1089;&#1086;&#1093;&#1088;&#1072;&#1085;&#1103;&#1077;&#1090; &#1074;&#1077;&#1089;&#1072;</text></g><!--link WEIGHTS to NB08--><g class="link" data-entity-1="WEIGHTS" data-entity-2="NB08" data-source-line="52" data-uid="lnk27" id="link_WEIGHTS_NB08"><path d="M191.21,696.5169 C189.04,712.6269 189.76,731.2969 200,744.7969 C211.31,759.7069 244.1625,770.043 282.1125,778.153" fill="none" id="WEIGHTS-to-NB08" style="stroke:#181818;stroke-width:1;"/><polygon fill="#181818" points="287.98,779.4069,280.0147,773.6143,283.0904,778.362,278.3428,781.4377,287.98,779.4069" style="stroke:#181818;stroke-width:1;"/><text fill="#000000" font-family="sans-serif" font-size="13" lengthAdjust="spacing" textLength="155.4795" x="201" y="740.8638">&#1079;&#1072;&#1075;&#1088;&#1091;&#1078;&#1072;&#1077;&#1090; &#1074;&#1089;&#1077; &#1084;&#1086;&#1076;&#1077;&#1083;&#1080;</text></g><!--link FEAT to NB08--><g class="link" data-entity-1="FEAT" data-entity-2="NB08" data-source-line="53" data-uid="lnk28" id="link_FEAT_NB08"><path d="M402.59,412.5269 C394.03,446.9669 375.44,526.8569 369,595.2969 C368.29,602.8169 368.92,604.7369 369,612.2969 C369.57,663.6869 370.8766,717.2691 371.8666,753.6091" fill="none" id="FEAT-to-NB08" style="stroke:#181818;stroke-width:1;"/><polygon fill="#181818" points="372.03,759.6069,375.7834,750.5013,371.8938,754.6087,367.7864,750.7191,372.03,759.6069" style="stroke:#181818;stroke-width:1;"/><text fill="#000000" font-family="sans-serif" font-size="13" lengthAdjust="spacing" textLength="120.5166" x="370" y="608.3638">&#1090;&#1077;&#1089;&#1090;&#1086;&#1074;&#1099;&#1077; &#1076;&#1072;&#1085;&#1085;&#1099;&#1077;</text></g><!--link AGENTS to NB08--><g class="link" data-entity-1="AGENTS" data-entity-2="NB08" data-source-line="54" data-uid="lnk29" id="link_AGENTS_NB08"><path d="M748.61,66.1469 C831.75,72.6969 1002,92.4269 1002,144.2969 C1002,144.2969 1002,144.2969 1002,662.7969 C1002,772.5769 635.9894,790.5992 464.1594,793.1092" fill="none" id="AGENTS-to-NB08" style="stroke:#181818;stroke-width:1;"/><polygon fill="#181818" points="458.16,793.1969,467.2175,797.065,463.1595,793.1238,467.1006,789.0658,458.16,793.1969" style="stroke:#181818;stroke-width:1;"/><text fill="#000000" font-family="sans-serif" font-size="13" lengthAdjust="spacing" textLength="109.1479" x="1003" y="357.3638">&#1080;&#1084;&#1087;&#1086;&#1088;&#1090; &#1072;&#1075;&#1077;&#1085;&#1090;&#1086;&#1074;</text></g><!--link UTILS to NB08--><g class="link" data-entity-1="UTILS" data-entity-2="NB08" data-source-line="55" data-uid="lnk30" id="link_UTILS_NB08"><path d="M802.32,412.5869 C811.59,423.0969 822.09,437.3469 827,452.2969 C864.12,565.2469 904.06,629.2569 827,719.7969 C780.62,774.2969 582.5972,788.3226 464.4472,791.9526" fill="none" id="UTILS-to-NB08" style="stroke:#181818;stroke-width:1;"/><polygon fill="#181818" points="458.45,792.1369,467.5686,795.8586,463.4476,791.9833,467.3229,787.8624,458.45,792.1369" style="stroke:#181818;stroke-width:1;"/><text fill="#000000" font-family="sans-serif" font-size="13" lengthAdjust="spacing" textLength="102.7114" x="872" y="608.3638">&#1080;&#1084;&#1087;&#1086;&#1088;&#1090; &#1091;&#1090;&#1080;&#1083;&#1080;&#1090;</text></g><!--link NB01 to PLOTS--><g class="link" data-entity-1="NB01" data-entity-2="PLOTS" data-source-line="56" data-uid="lnk31" id="link_NB01_PLOTS"><path d="M327.11,148.6069 C222.15,153.8569 51,171.0469 51,227.2969 C51,227.2969 51,227.2969 51,795.2969 C51,822.9269 55.6325,848.1995 60.7025,869.5295" fill="none" id="NB01-to-PLOTS" style="stroke:#181818;stroke-width:1;"/><polygon fill="#181818" points="62.09,875.3669,63.9003,865.6858,60.9337,870.5024,56.1172,867.5358,62.09,875.3669" style="stroke:#181818;stroke-width:1;"/><text fill="#000000" font-family="sans-serif" font-size="13" lengthAdjust="spacing" textLength="90.1621" x="52" y="440.3638">&#1075;&#1088;&#1072;&#1092;&#1080;&#1082;&#1080; EDA</text></g><!--link NB08 to PLOTS--><g class="link" data-entity-1="NB08" data-entity-2="PLOTS" data-source-line="57" data-uid="lnk32" id="link_NB08_PLOTS"><path d="M287.91,824.9669 C238.21,842.2969 182.2355,861.8115 137.0355,877.5715" fill="none" id="NB08-to-PLOTS" style="stroke:#181818;stroke-width:1;"/><polygon fill="#181818" points="131.37,879.5469,141.1852,880.3608,136.0912,877.9007,138.5513,872.8068,131.37,879.5469" style="stroke:#181818;stroke-width:1;"/><text fill="#000000" font-family="sans-serif" font-size="13" lengthAdjust="spacing" textLength="138.0171" x="231" y="856.8638">&#1075;&#1088;&#1072;&#1092;&#1080;&#1082;&#1080; &#1089;&#1080;&#1084;&#1091;&#1083;&#1103;&#1094;&#1080;&#1080;</text></g><!--SRC=[bLLRQnj757xVNt6mAMtJnfLbHrOCBaYhbMjgqf2uv4MmZAIrlF5gLkoEwffIy2MEAMqmb3wLNcXf7mkAOoMo4ob_OUOVvPpPYrPh4-ZJxixvpfplNBwpmk-1yA7f2-5teUq6JakuFZV2NPVtMC2wq6IjtKxWztdRz3q_WBqTLpWPUxZ3slwUopkmpRmmQucT0ku4KCwSSx_jX4uFYeKicF5TEbmg68PmXUU0_5DEr96So2kG5t8WntAiVbGdgq3785_88HuDrO4SgATo94U0GFK4tyO8Vgr-mkT4lb77e8xKCSB6SgGErB5XV0XhQsiWVqFpXJgMhz4L3mnAdV4EHfvZ7OUBSA6tFmSiXCgwTM_h8SoRPQjatitY-iBrKjZNMnkRYAfMQrQzcaRv3rCOoBUmYBn_IRAGmtp4mgBTPeBP6DW96BL0ttclMbY4-NhTAbIBC_2YlUqmqGySs-4TbpjEW1r8N8gfIyBYNoeJLO2oLJzW_6n9DPbG-07c3NC1szDS5bhXD_h61vL7C6-LhKgzD4N5uSCKLRSgMoaidtqHi_z3FiS-dEgsZU8Az72uz7NoLsGsK8Vg4FaX1fzN6YNVK9lG2OdhEEQcVV_BTShGDCi5-Cu0o1PcoMvvB0pTbjtradeivJ3BjjyJVSuI-xBnlP6XyZj6kyI2JP3441COodFTicjKQYcLwifoxHgLEtOdw2SnxkIC9TiBHJUnbdBM5NjdlncuxSI-GWpZclwigpEORLeNDUNPUuxRsH7XPmrU-XOM7ljDpst29x247xiuLc63wu-mnJmdq7S_iZRMlw3XhflMicMcGVv9T7HjKCjsw7RxdfxH1h-RhGgMxLCKCCtMc3uQNFuzbTugg6VOr4caIpmvWm-I_CeuEVMIMK3nfodTMkZnJeD_j5X2iMkPaxZfWlEFjT_zpQ-8UMxa_i9kdSbNiQXZxTw-_Nca9Pp34GP_Yyqzm2toiCi2iOw5hf3Y3GqXB8qyyZr4s4aa7RmJPy4WGtnPaH2dc0UDEDdq6Hcr56vqrnQ2n5ESko4rrsuqHnjcnZwJZNg2wsmih_G-l3JY68HFsdmJAP3dqKGPjV_haA3YYfI9q2i4lg15Arz6j15EGfgHppJJs8raXkgdTH-BxMAwB7DTBEVpfeYqLYBtJ9bk0kD07iLxy6ZQy6YMLcSdRGHMhMBeIzw3ePL5_ndyvvn5Vw9t]--></g></svg>