<?plantuml 1.2026.3beta3?><svg xmlns="http://www.w3.org/2000/svg" xmlns:xlink="http://www.w3.org/1999/xlink" contentStyleType="text/css" data-diagram-type="CLASS" height="582px" preserveAspectRatio="none" style="width:1901px;height:582px;background:#FFFFFF;" version="1.1" viewBox="0 0 1901 582" width="1901px" zoomAndPan="magnify"><defs/><g><g class="title" data-source-line="6"><text fill="#000000" font-family="sans-serif" font-size="14" font-weight="bold" lengthAdjust="spacing" textLength="317.1123" x="788.4438" y="22.9951">&#1048;&#1077;&#1088;&#1072;&#1088;&#1093;&#1080;&#1103; &#1082;&#1083;&#1072;&#1089;&#1089;&#1086;&#1074;: agents.py + utils.py</text></g><!--cluster agents--><g class="cluster" data-qualified-name="agents" data-source-line="9" id="ent0004"><path d="M10,85.0128 L61.9561,85.0128 A6,6 0 0 1 65.9561,89.0128 L72.9561,107.3097 L1530,107.3097 A4,4 0 0 1 1534,111.3097 L1534,563.8028 A4,4 0 0 1 1530,567.8028 L10,567.8028 A4,4 0 0 1 6,563.8028 L6,89.0128 A4,4 0 0 1 10,85.0128" fill="none" style="stroke:#000000;stroke-width:1.5;"/><line style="stroke:#000000;stroke-width:1.5;" x1="6" x2="72.9561" y1="107.3097" y2="107.3097"/><text fill="#000000" font-family="sans-serif" font-size="14" font-weight="bold" lengthAdjust="spacing" textLength="53.9561" x="10" y="100.0079">agents</text></g><!--cluster py--><g class="cluster" data-qualified-name="agents.py" data-source-line="8" id="ent0002"><path d="M34,128.0128 L51.1475,128.0128 A6,6 0 0 1 55.1475,132.0128 L62.1475,150.3097 L1506,150.3097 A4,4 0 0 1 1510,154.3097 L1510,539.8028 A4,4 0 0 1 1506,543.8028 L34,543.8028 A4,4 0 0 1 30,539.8028 L30,132.0128 A4,4 0 0 1 34,128.0128" fill="#E8F5E9" style="stroke:#000000;stroke-width:1.5;"/><line style="stroke:#000000;stroke-width:1.5;" x1="30" x2="62.1475" y1="150.3097" y2="150.3097"/><text fill="#000000" font-family="sans-serif" font-size="14" font-weight="bold" lengthAdjust="spacing" textLength="19.1475" x="34" y="143.0079">py</text></g><!--cluster utils--><g class="cluster" data-qualified-name="utils" data-source-line="71" id="ent0023"><path d="M1562,76.8628 L1594.5898,76.8628 A6,6 0 0 1 1598.5898,80.8628 L1605.5898,99.1597 L1882,99.1597 A4,4 0 0 1 1886,103.1597 L1886,347.6128 A4,4 0 0 1 1882,351.6128 L1562,351.6128 A4,4 0 0 1 1558,347.6128 L1558,80.8628 A4,4 0 0 1 1562,76.8628" fill="none" style="stroke:#000000;stroke-width:1.5;"/><line style="stroke:#000000;stroke-width:1.5;" x1="1558" x2="1605.5898" y1="99.1597" y2="99.1597"/><text fill="#000000" font-family="sans-serif" font-size="14" font-weight="bold" lengthAdjust="spacing" textLength="34.5898" x="1562" y="91.8579">utils</text></g><!--cluster py--><g class="cluster" data-qualified-name="utils.py" data-source-line="70" id="ent0021"><path d="M1586,119.8628 L1603.1475,119.8628 A6,6 0 0 1 1607.1475,123.8628 L1614.1475,142.1597 L1858,142.1597 A4,4 0 0 1 1862,146.1597 L1862,323.6128 A4,4 0 0 1 1858,327.6128 L1586,327.6128 A4,4 0 0 1 1582,323.6128 L1582,123.8628 A4,4 0 0 1 1586,119.8628" fill="#E3F2FD" style="stroke:#000000;stroke-width:1.5;"/><line style="stroke:#000000;stroke-width:1.5;" x1="1582" x2="1614.1475" y1="142.1597" y2="142.1597"/><text fill="#000000" font-family="sans-serif" font-size="14" font-weight="bold" lengthAdjust="spacing" textLength="19.1475" x="1586" y="134.8579">py</text></g><!--class ElectricAppliance--><g class="entity" data-qualified-name="agents.py.ElectricAppliance" data-source-line="9" id="ent0003"><rect fill="#F1F1F1" height="121.4531" rx="4" ry="4" style="stroke:#181818;stroke-width:0.5;" width="193.665" x="592.17" y="182.0128"/><ellipse cx="625.5725" cy="202.1456" fill="#A9DCDF" rx="11" ry="11" style="stroke:#181818;stroke-width:1;"/><path d="M625.6819,197.4894 L624.5257,202.5675 L626.8538,202.5675 L625.6819,197.4894 Z M624.1975,195.255 L627.1819,195.255 L630.5413,207.6456 L628.0882,207.6456 L627.3225,204.5831 L624.0413,204.5831 L623.2913,207.6456 L620.8538,207.6456 L624.1975,195.255 Z " fill="#000000"/><text fill="#000000" font-family="sans-serif" font-size="12" font-style="italic" lengthAdjust="spacing" textLength="39.5039" x="684.2953" y="198.1515">&#171;ABC&#187;</text><text fill="#000000" font-family="sans-serif" font-size="14" font-style="italic" lengthAdjust="spacing" textLength="120.7705" x="643.662" y="213.9767">ElectricAppliance</text><line style="stroke:#181818;stroke-width:0.5;" x1="593.17" x2="784.835" y1="222.2784" y2="222.2784"/><text fill="#000000" font-family="sans-serif" font-size="14" lengthAdjust="spacing" textLength="79.1396" x="598.17" y="239.2735">+name: str</text><text fill="#000000" font-family="sans-serif" font-size="14" lengthAdjust="spacing" textLength="158.9287" x="598.17" y="255.5704">+nominal_power: float</text><text fill="#000000" font-family="sans-serif" font-size="14" lengthAdjust="spacing" textLength="90.043" x="598.17" y="271.8673">+t0, t1: float</text><line style="stroke:#181818;stroke-width:0.5;" x1="593.17" x2="784.835" y1="279.169" y2="279.169"/><text fill="#000000" font-family="sans-serif" font-size="14" font-style="italic" lengthAdjust="spacing" textLength="181.665" x="598.17" y="296.1642">+measure_consumption()</text></g><!--class EssentialAppliance--><g class="entity" data-qualified-name="agents.py.EssentialAppliance" data-source-line="16" id="ent0005"><rect fill="#F1F1F1" height="64.2969" rx="4" ry="4" style="stroke:#181818;stroke-width:0.5;" width="266.3516" x="1004.82" y="439.0628"/><ellipse cx="1067.9157" cy="455.0628" fill="#ADD1B2" rx="11" ry="11" style="stroke:#181818;stroke-width:1;"/><path d="M1070.8845,460.7034 Q1070.3063,461.0003 1069.6657,461.1409 Q1069.0251,461.2972 1068.322,461.2972 Q1065.822,461.2972 1064.4938,459.6565 Q1063.1813,458.0003 1063.1813,454.8753 Q1063.1813,451.7503 1064.4938,450.094 Q1065.822,448.4378 1068.322,448.4378 Q1069.0251,448.4378 1069.6657,448.594 Q1070.322,448.7503 1070.8845,449.0472 L1070.8845,451.7659 Q1070.2595,451.1878 1069.6657,450.9222 Q1069.072,450.6409 1068.447,450.6409 Q1067.1032,450.6409 1066.4157,451.719 Q1065.7282,452.7815 1065.7282,454.8753 Q1065.7282,456.969 1066.4157,458.0472 Q1067.1032,459.1097 1068.447,459.1097 Q1069.072,459.1097 1069.6657,458.844 Q1070.2595,458.5628 1070.8845,457.9847 L1070.8845,460.7034 Z " fill="#000000"/><text fill="#000000" font-family="sans-serif" font-size="14" lengthAdjust="spacing" textLength="131.6602" x="1088.4157" y="459.9095">EssentialAppliance</text><line style="stroke:#181818;stroke-width:0.5;" x1="1005.82" x2="1270.1716" y1="471.0628" y2="471.0628"/><line style="stroke:#181818;stroke-width:0.5;" x1="1005.82" x2="1270.1716" y1="479.0628" y2="479.0628"/><text fill="#000000" font-family="sans-serif" font-size="14" lengthAdjust="spacing" textLength="254.3516" x="1010.82" y="496.0579">&#1042;&#1089;&#1077;&#1075;&#1076;&#1072; &#1074;&#1082;&#1083; (&#1093;&#1086;&#1083;&#1086;&#1076;&#1080;&#1083;&#1100;&#1085;&#1080;&#1082;, &#1088;&#1086;&#1091;&#1090;&#1077;&#1088;)</text></g><!--class ScheduledAppliance--><g class="entity" data-qualified-name="agents.py.ScheduledAppliance" data-source-line="20" id="ent0006"><rect fill="#F1F1F1" height="96.8906" rx="4" ry="4" style="stroke:#181818;stroke-width:0.5;" width="187.9844" x="1306.01" y="422.7628"/><ellipse cx="1327.2524" cy="438.7628" fill="#ADD1B2" rx="11" ry="11" style="stroke:#181818;stroke-width:1;"/><path d="M1330.2212,444.4034 Q1329.6431,444.7003 1329.0024,444.8409 Q1328.3618,444.9972 1327.6587,444.9972 Q1325.1587,444.9972 1323.8306,443.3565 Q1322.5181,441.7003 1322.5181,438.5753 Q1322.5181,435.4503 1323.8306,433.794 Q1325.1587,432.1378 1327.6587,432.1378 Q1328.3618,432.1378 1329.0024,432.294 Q1329.6587,432.4503 1330.2212,432.7472 L1330.2212,435.4659 Q1329.5962,434.8878 1329.0024,434.6222 Q1328.4087,434.3409 1327.7837,434.3409 Q1326.4399,434.3409 1325.7524,435.419 Q1325.0649,436.4815 1325.0649,438.5753 Q1325.0649,440.669 1325.7524,441.7472 Q1326.4399,442.8097 1327.7837,442.8097 Q1328.4087,442.8097 1329.0024,442.544 Q1329.5962,442.2628 1330.2212,441.6847 L1330.2212,444.4034 Z " fill="#000000"/><text fill="#000000" font-family="sans-serif" font-size="14" lengthAdjust="spacing" textLength="142.1123" x="1342.6396" y="443.6095">ScheduledAppliance</text><line style="stroke:#181818;stroke-width:0.5;" x1="1307.01" x2="1492.9944" y1="454.7628" y2="454.7628"/><text fill="#000000" font-family="sans-serif" font-size="14" lengthAdjust="spacing" textLength="175.9844" x="1312.01" y="471.7579">&#1055;&#1086; &#1088;&#1072;&#1089;&#1087;&#1080;&#1089;&#1072;&#1085;&#1080;&#1102; + &#1089;&#1076;&#1074;&#1080;&#1075;</text><text fill="#000000" font-family="sans-serif" font-size="14" lengthAdjust="spacing" textLength="113.4287" x="1312.01" y="488.0548">+can_shift: bool</text><line style="stroke:#181818;stroke-width:0.5;" x1="1307.01" x2="1492.9944" y1="495.3565" y2="495.3565"/><text fill="#000000" font-family="sans-serif" font-size="14" lengthAdjust="spacing" textLength="148.2031" x="1312.01" y="512.3517">+try_shift(new_start)</text></g><!--class PeakAppliance--><g class="entity" data-qualified-name="agents.py.PeakAppliance" data-source-line="26" id="ent0007"><rect fill="#F1F1F1" height="64.2969" rx="4" ry="4" style="stroke:#181818;stroke-width:0.5;" width="174.9619" x="270.52" y="439.0628"/><ellipse cx="303.6672" cy="455.0628" fill="#ADD1B2" rx="11" ry="11" style="stroke:#181818;stroke-width:1;"/><path d="M306.636,460.7034 Q306.0578,461.0003 305.4172,461.1409 Q304.7766,461.2972 304.0735,461.2972 Q301.5735,461.2972 300.2453,459.6565 Q298.9328,458.0003 298.9328,454.8753 Q298.9328,451.7503 300.2453,450.094 Q301.5735,448.4378 304.0735,448.4378 Q304.7766,448.4378 305.4172,448.594 Q306.0735,448.7503 306.636,449.0472 L306.636,451.7659 Q306.011,451.1878 305.4172,450.9222 Q304.8235,450.6409 304.1985,450.6409 Q302.8547,450.6409 302.1672,451.719 Q301.4797,452.7815 301.4797,454.8753 Q301.4797,456.969 302.1672,458.0472 Q302.8547,459.1097 304.1985,459.1097 Q304.8235,459.1097 305.4172,458.844 Q306.011,458.5628 306.636,457.9847 L306.636,460.7034 Z " fill="#000000"/><text fill="#000000" font-family="sans-serif" font-size="14" lengthAdjust="spacing" textLength="102.6348" x="321.6999" y="459.9095">PeakAppliance</text><line style="stroke:#181818;stroke-width:0.5;" x1="271.52" x2="444.4819" y1="471.0628" y2="471.0628"/><text fill="#000000" font-family="sans-serif" font-size="14" lengthAdjust="spacing" textLength="162.9619" x="276.52" y="488.0579">&#1055;&#1080;&#1082;&#1086;&#1074;&#1086;&#1077; &#1087;&#1086;&#1090;&#1088;&#1077;&#1073;&#1083;&#1077;&#1085;&#1080;&#1077;</text><line style="stroke:#181818;stroke-width:0.5;" x1="271.52" x2="444.4819" y1="495.3597" y2="495.3597"/></g><!--class TemperatureSensitiveAppliance--><g class="entity" data-qualified-name="agents.py.TemperatureSensitiveAppliance" data-source-line="30" id="ent0008"><rect fill="#F1F1F1" height="80.5938" rx="4" ry="4" style="stroke:#181818;stroke-width:0.5;" width="256.0957" x="480.95" y="430.9128"/><ellipse cx="495.95" cy="446.9128" fill="#ADD1B2" rx="11" ry="11" style="stroke:#181818;stroke-width:1;"/><path d="M498.9188,452.5534 Q498.3406,452.8503 497.7,452.9909 Q497.0594,453.1472 496.3563,453.1472 Q493.8563,453.1472 492.5281,451.5065 Q491.2156,449.8503 491.2156,446.7253 Q491.2156,443.6003 492.5281,441.944 Q493.8563,440.2878 496.3563,440.2878 Q497.0594,440.2878 497.7,440.444 Q498.3563,440.6003 498.9188,440.8972 L498.9188,443.6159 Q498.2938,443.0378 497.7,442.7722 Q497.1063,442.4909 496.4813,442.4909 Q495.1375,442.4909 494.45,443.569 Q493.7625,444.6315 493.7625,446.7253 Q493.7625,448.819 494.45,449.8972 Q495.1375,450.9597 496.4813,450.9597 Q497.1063,450.9597 497.7,450.694 Q498.2938,450.4128 498.9188,449.8347 L498.9188,452.5534 Z " fill="#000000"/><text fill="#000000" font-family="sans-serif" font-size="14" lengthAdjust="spacing" textLength="224.0957" x="509.95" y="451.7595">TemperatureSensitiveAppliance</text><line style="stroke:#181818;stroke-width:0.5;" x1="481.95" x2="736.0457" y1="462.9128" y2="462.9128"/><text fill="#000000" font-family="sans-serif" font-size="14" lengthAdjust="spacing" textLength="135.5293" x="486.95" y="479.9079">&#1047;&#1072;&#1074;&#1080;&#1089;&#1080;&#1090; &#1086;&#1090; &#1089;&#1077;&#1079;&#1086;&#1085;&#1072;</text><text fill="#000000" font-family="sans-serif" font-size="14" lengthAdjust="spacing" textLength="145.6055" x="486.95" y="496.2048">+appliance_type: str</text><line style="stroke:#181818;stroke-width:0.5;" x1="481.95" x2="736.0457" y1="503.5065" y2="503.5065"/></g><!--class Battery--><g class="entity" data-qualified-name="agents.py.Battery" data-source-line="35" id="ent0009"><rect fill="#F1F1F1" height="113.1875" rx="4" ry="4" style="stroke:#181818;stroke-width:0.5;" width="197.7666" x="772.12" y="414.6128"/><ellipse cx="840.8451" cy="430.6128" fill="#ADD1B2" rx="11" ry="11" style="stroke:#181818;stroke-width:1;"/><path d="M843.8138,436.2534 Q843.2357,436.5503 842.5951,436.6909 Q841.9545,436.8472 841.2513,436.8472 Q838.7513,436.8472 837.4232,435.2065 Q836.1107,433.5503 836.1107,430.4253 Q836.1107,427.3003 837.4232,425.644 Q838.7513,423.9878 841.2513,423.9878 Q841.9545,423.9878 842.5951,424.144 Q843.2513,424.3003 843.8138,424.5972 L843.8138,427.3159 Q843.1888,426.7378 842.5951,426.4722 Q842.0013,426.1909 841.3763,426.1909 Q840.0326,426.1909 839.3451,427.269 Q838.6576,428.3315 838.6576,430.4253 Q838.6576,432.519 839.3451,433.5972 Q840.0326,434.6597 841.3763,434.6597 Q842.0013,434.6597 842.5951,434.394 Q843.1888,434.1128 843.8138,433.5347 L843.8138,436.2534 Z " fill="#000000"/><text fill="#000000" font-family="sans-serif" font-size="14" lengthAdjust="spacing" textLength="51.8164" x="861.3451" y="435.4595">Battery</text><line style="stroke:#181818;stroke-width:0.5;" x1="773.12" x2="968.8866" y1="446.6128" y2="446.6128"/><text fill="#000000" font-family="sans-serif" font-size="14" lengthAdjust="spacing" textLength="147.1504" x="778.12" y="463.6079">+capacity, efficiency</text><text fill="#000000" font-family="sans-serif" font-size="14" lengthAdjust="spacing" textLength="158.8125" x="778.12" y="479.9048">+current_charge: float</text><line style="stroke:#181818;stroke-width:0.5;" x1="773.12" x2="968.8866" y1="487.2065" y2="487.2065"/><text fill="#000000" font-family="sans-serif" font-size="14" lengthAdjust="spacing" textLength="165.6963" x="778.12" y="504.2017">+charge(amount): float</text><text fill="#000000" font-family="sans-serif" font-size="14" lengthAdjust="spacing" textLength="185.7666" x="778.12" y="520.4985">+discharge(amount): float</text></g><!--class HouseholdAgent--><g class="entity" data-qualified-name="agents.py.HouseholdAgent" data-source-line="42" id="ent0010"><rect fill="#F1F1F1" height="96.8906" rx="4" ry="4" style="stroke:#181818;stroke-width:0.5;" width="203.5566" x="46.22" y="194.2928"/><ellipse cx="86.4332" cy="210.2928" fill="#ADD1B2" rx="11" ry="11" style="stroke:#181818;stroke-width:1;"/><path d="M89.4019,215.9334 Q88.8238,216.2303 88.1832,216.3709 Q87.5426,216.5272 86.8394,216.5272 Q84.3394,216.5272 83.0113,214.8865 Q81.6988,213.2303 81.6988,210.1053 Q81.6988,206.9803 83.0113,205.324 Q84.3394,203.6678 86.8394,203.6678 Q87.5426,203.6678 88.1832,203.824 Q88.8394,203.9803 89.4019,204.2772 L89.4019,206.9959 Q88.7769,206.4178 88.1832,206.1522 Q87.5894,205.8709 86.9644,205.8709 Q85.6207,205.8709 84.9332,206.949 Q84.2457,208.0115 84.2457,210.1053 Q84.2457,212.199 84.9332,213.2772 Q85.6207,214.3397 86.9644,214.3397 Q87.5894,214.3397 88.1832,214.074 Q88.7769,213.7928 89.4019,213.2147 L89.4019,215.9334 Z " fill="#000000"/><text fill="#000000" font-family="sans-serif" font-size="14" lengthAdjust="spacing" textLength="115.5273" x="106.0361" y="215.1395">HouseholdAgent</text><line style="stroke:#181818;stroke-width:0.5;" x1="47.22" x2="248.7766" y1="226.2928" y2="226.2928"/><text fill="#000000" font-family="sans-serif" font-size="14" lengthAdjust="spacing" textLength="191.5566" x="52.22" y="243.2879">+agent_id, household_type</text><text fill="#000000" font-family="sans-serif" font-size="14" lengthAdjust="spacing" textLength="120.5586" x="52.22" y="259.5848">+appliances: List</text><line style="stroke:#181818;stroke-width:0.5;" x1="47.22" x2="248.7766" y1="266.8865" y2="266.8865"/><text fill="#000000" font-family="sans-serif" font-size="14" lengthAdjust="spacing" textLength="181.665" x="52.22" y="283.8817">+measure_consumption()</text></g><!--class SmartHouseholdAgent--><g class="entity" data-qualified-name="agents.py.SmartHouseholdAgent" data-source-line="48" id="ent0011"><rect fill="#F1F1F1" height="96.8906" rx="4" ry="4" style="stroke:#181818;stroke-width:0.5;" width="189.876" x="46.06" y="422.7628"/><ellipse cx="61.06" cy="438.7628" fill="#ADD1B2" rx="11" ry="11" style="stroke:#181818;stroke-width:1;"/><path d="M64.0288,444.4034 Q63.4506,444.7003 62.81,444.8409 Q62.1694,444.9972 61.4663,444.9972 Q58.9663,444.9972 57.6381,443.3565 Q56.3256,441.7003 56.3256,438.5753 Q56.3256,435.4503 57.6381,433.794 Q58.9663,432.1378 61.4663,432.1378 Q62.1694,432.1378 62.81,432.294 Q63.4663,432.4503 64.0288,432.7472 L64.0288,435.4659 Q63.4038,434.8878 62.81,434.6222 Q62.2163,434.3409 61.5913,434.3409 Q60.2475,434.3409 59.56,435.419 Q58.8725,436.4815 58.8725,438.5753 Q58.8725,440.669 59.56,441.7472 Q60.2475,442.8097 61.5913,442.8097 Q62.2163,442.8097 62.81,442.544 Q63.4038,442.2628 64.0288,441.6847 L64.0288,444.4034 Z " fill="#000000"/><text fill="#000000" font-family="sans-serif" font-size="14" lengthAdjust="spacing" textLength="157.876" x="75.06" y="443.6095">SmartHouseholdAgent</text><line style="stroke:#181818;stroke-width:0.5;" x1="47.06" x2="234.936" y1="454.7628" y2="454.7628"/><text fill="#000000" font-family="sans-serif" font-size="14" lengthAdjust="spacing" textLength="123.8125" x="52.06" y="471.7579">+battery: Battery</text><line style="stroke:#181818;stroke-width:0.5;" x1="47.06" x2="234.936" y1="479.0597" y2="479.0597"/><text fill="#000000" font-family="sans-serif" font-size="14" lengthAdjust="spacing" textLength="120.2578" x="52.06" y="496.0548">+optimize_step()</text><text fill="#000000" font-family="sans-serif" font-size="14" lengthAdjust="spacing" textLength="58.4199" x="52.06" y="512.3517">+reset()</text></g><!--class SmartGridAgent--><g class="entity" data-qualified-name="agents.py.SmartGridAgent" data-source-line="54" id="ent0012"><rect fill="#F1F1F1" height="80.5938" rx="4" ry="4" style="stroke:#181818;stroke-width:0.5;" width="271.499" x="285.25" y="202.4428"/><ellipse cx="360.165" cy="218.4428" fill="#ADD1B2" rx="11" ry="11" style="stroke:#181818;stroke-width:1;"/><path d="M363.1338,224.0834 Q362.5557,224.3803 361.915,224.5209 Q361.2744,224.6772 360.5713,224.6772 Q358.0713,224.6772 356.7432,223.0365 Q355.4307,221.3803 355.4307,218.2553 Q355.4307,215.1303 356.7432,213.474 Q358.0713,211.8178 360.5713,211.8178 Q361.2744,211.8178 361.915,211.974 Q362.5713,212.1303 363.1338,212.4272 L363.1338,215.1459 Q362.5088,214.5678 361.915,214.3022 Q361.3213,214.0209 360.6963,214.0209 Q359.3525,214.0209 358.665,215.099 Q357.9775,216.1615 357.9775,218.2553 Q357.9775,220.349 358.665,221.4272 Q359.3525,222.4897 360.6963,222.4897 Q361.3213,222.4897 361.915,222.224 Q362.5088,221.9428 363.1338,221.3647 L363.1338,224.0834 Z " fill="#000000"/><text fill="#000000" font-family="sans-serif" font-size="14" lengthAdjust="spacing" textLength="113.1689" x="380.665" y="223.2895">SmartGridAgent</text><line style="stroke:#181818;stroke-width:0.5;" x1="286.25" x2="555.749" y1="234.4428" y2="234.4428"/><text fill="#000000" font-family="sans-serif" font-size="14" lengthAdjust="spacing" textLength="93.1055" x="291.25" y="251.4379">+agents: List</text><line style="stroke:#181818;stroke-width:0.5;" x1="286.25" x2="555.749" y1="258.7397" y2="258.7397"/><text fill="#000000" font-family="sans-serif" font-size="14" lengthAdjust="spacing" textLength="259.499" x="291.25" y="275.7348">+step(timestamp, day_type, season)</text></g><!--class Utils--><g class="entity" data-qualified-name="utils.py.Utils" data-source-line="71" id="ent0022"><rect fill="#F1F1F1" height="137.75" rx="4" ry="4" style="stroke:#181818;stroke-width:0.5;" width="247.5869" x="1598.21" y="173.8628"/><ellipse cx="1684.3013" cy="193.9956" fill="#ADD1B2" rx="11" ry="11" style="stroke:#181818;stroke-width:1;"/><path d="M1687.2701,199.6362 Q1686.6919,199.9331 1686.0513,200.0737 Q1685.4107,200.23 1684.7076,200.23 Q1682.2076,200.23 1680.8794,198.5894 Q1679.5669,196.9331 1679.5669,193.8081 Q1679.5669,190.6831 1680.8794,189.0269 Q1682.2076,187.3706 1684.7076,187.3706 Q1685.4107,187.3706 1686.0513,187.5269 Q1686.7076,187.6831 1687.2701,187.98 L1687.2701,190.6987 Q1686.6451,190.1206 1686.0513,189.855 Q1685.4576,189.5737 1684.8326,189.5737 Q1683.4888,189.5737 1682.8013,190.6519 Q1682.1138,191.7144 1682.1138,193.8081 Q1682.1138,195.9019 1682.8013,196.98 Q1683.4888,198.0425 1684.8326,198.0425 Q1685.4576,198.0425 1686.0513,197.7769 Q1686.6451,197.4956 1687.2701,196.9175 L1687.2701,199.6362 Z " fill="#000000"/><text fill="#000000" font-family="sans-serif" font-size="12" font-style="italic" lengthAdjust="spacing" textLength="70.9043" x="1702.8013" y="190.0015">&#171;&#1092;&#1091;&#1085;&#1082;&#1094;&#1080;&#1080;&#187;</text><text fill="#000000" font-family="sans-serif" font-size="14" lengthAdjust="spacing" textLength="30.8096" x="1722.8487" y="205.8267">Utils</text><line style="stroke:#181818;stroke-width:0.5;" x1="1599.21" x2="1844.7969" y1="214.1284" y2="214.1284"/><line style="stroke:#181818;stroke-width:0.5;" x1="1599.21" x2="1844.7969" y1="222.1284" y2="222.1284"/><text fill="#000000" font-family="sans-serif" font-size="14" lengthAdjust="spacing" textLength="102.2725" x="1604.21" y="239.1235">+set_seed(42)</text><text fill="#000000" font-family="sans-serif" font-size="14" lengthAdjust="spacing" textLength="184.0918" x="1604.21" y="255.4204">+asymmetric_profit_loss()</text><text fill="#000000" font-family="sans-serif" font-size="14" lengthAdjust="spacing" textLength="235.5869" x="1604.21" y="271.7173">+evaluate_and_plot_predictions()</text><text fill="#000000" font-family="sans-serif" font-size="14" lengthAdjust="spacing" textLength="219.2217" x="1604.21" y="288.0142">+plot_training_history_with_lr()</text><text fill="#000000" font-family="sans-serif" font-size="14" lengthAdjust="spacing" textLength="149.1602" x="1604.21" y="304.311">+create_sequences()</text></g><!--reverse link ElectricAppliance to EssentialAppliance--><g class="link" data-entity-1="ent0003" data-entity-2="ent0005" data-link-type="extension" data-source-line="59" id="lnk13"><path codeLine="59" d="M802.2218,300.8482 C890.0218,345.1282 1000.59,400.9028 1075.57,438.7228" fill="none" id="ElectricAppliance-backto-EssentialAppliance" style="stroke:#181818;stroke-width:1;"/><polygon fill="none" points="786.15,292.7428,799.52,306.2055,804.9236,295.491,786.15,292.7428" style="stroke:#181818;stroke-width:1;"/></g><!--reverse link ElectricAppliance to ScheduledAppliance--><g class="link" data-entity-1="ent0003" data-entity-2="ent0006" data-link-type="extension" data-source-line="60" id="lnk14"><path codeLine="60" d="M803.6829,269.5997 C923.8829,297.8397 1116.26,347.4428 1289,414.6128 C1295.13,417.0028 1301.37,419.6028 1307.61,422.3428" fill="none" id="ElectricAppliance-backto-ScheduledAppliance" style="stroke:#181818;stroke-width:1;"/><polygon fill="none" points="786.16,265.4828,802.3106,275.4406,805.0552,263.7587,786.16,265.4828" style="stroke:#181818;stroke-width:1;"/></g><!--reverse link ElectricAppliance to PeakAppliance--><g class="link" data-entity-1="ent0003" data-entity-2="ent0007" data-link-type="extension" data-source-line="61" id="lnk15"><path codeLine="61" d="M631.6927,317.0906 C612.5527,338.2106 600.59,346.5728 574,359.6128 C547.86,372.4328 536.24,357.3728 509,367.6128 C465.69,383.9028 422.66,414.9828 393.69,438.6828" fill="none" id="ElectricAppliance-backto-PeakAppliance" style="stroke:#181818;stroke-width:1;"/><polygon fill="none" points="643.78,303.7528,627.2467,313.0614,636.1386,321.1197,643.78,303.7528" style="stroke:#181818;stroke-width:1;"/></g><!--reverse link ElectricAppliance to TemperatureSensitiveAppliance--><g class="link" data-entity-1="ent0003" data-entity-2="ent0008" data-link-type="extension" data-source-line="62" id="lnk16"><path codeLine="62" d="M661.7766,320.8057 C647.6166,360.9057 635.38,395.5328 623.01,430.5528" fill="none" id="ElectricAppliance-backto-TemperatureSensitiveAppliance" style="stroke:#181818;stroke-width:1;"/><polygon fill="none" points="667.77,303.8328,656.119,318.8079,667.4342,322.8035,667.77,303.8328" style="stroke:#181818;stroke-width:1;"/></g><!--reverse link HouseholdAgent to SmartHouseholdAgent--><g class="link" data-entity-1="ent0010" data-entity-2="ent0011" data-link-type="extension" data-source-line="64" id="lnk17"><path codeLine="64" d="M145.9645,309.4842 C144.7745,348.0242 143.66,384.0028 142.47,422.5228" fill="none" id="HouseholdAgent-backto-SmartHouseholdAgent" style="stroke:#181818;stroke-width:1;"/><polygon fill="none" points="146.52,291.4928,139.9673,309.299,151.9616,309.6694,146.52,291.4928" style="stroke:#181818;stroke-width:1;"/></g><!--reverse link HouseholdAgent to ElectricAppliance--><g class="link" data-entity-1="ent0010" data-entity-2="ent0003" data-link-type="composition" data-source-line="65" id="lnk18"><path codeLine="65" d="M175.498,183.3185 C195.228,145.9085 222.54,107.6228 268,85.0928 C328.93,54.9028 513.38,54.2828 574,85.0928 C613.86,105.3528 643.19,146.6328 662.25,181.8728" fill="none" id="HouseholdAgent-backto-ElectricAppliance" style="stroke:#181818;stroke-width:1;"/><polygon fill="#181818" points="169.9,193.9328,176.2371,190.4916,175.498,183.3185,169.1609,186.7597,169.9,193.9328" style="stroke:#181818;stroke-width:1;"/><text fill="#000000" font-family="sans-serif" font-size="13" lengthAdjust="spacing" textLength="68.0723" x="387" y="56.9297">&#1089;&#1086;&#1076;&#1077;&#1088;&#1078;&#1080;&#1090;</text><text fill="#000000" font-family="sans-serif" font-size="13" lengthAdjust="spacing" textLength="9.7246" x="649.6783" y="171.0425">N</text></g><!--reverse link SmartHouseholdAgent to Battery--><g class="link" data-entity-1="ent0011" data-entity-2="ent0009" data-link-type="composition" data-source-line="66" id="lnk19"><path codeLine="66" d="M243.0964,417.7533 C250.1064,414.9033 246.04,416.8228 253,414.6128 C390.4,370.9728 431.66,360.0528 575,375.4628 C656.4,384.2128 677.65,387.7728 755,414.6128 C760.5,416.5228 766.09,418.6328 771.67,420.8728" fill="none" id="SmartHouseholdAgent-backto-Battery" style="stroke:#181818;stroke-width:1;"/><polygon fill="#181818" points="231.98,422.2728,239.0447,423.7185,243.0964,417.7533,236.0317,416.3076,231.98,422.2728" style="stroke:#181818;stroke-width:1;"/><text fill="#000000" font-family="sans-serif" font-size="13" lengthAdjust="spacing" textLength="56.4941" x="518" y="380.6797">&#1074;&#1083;&#1072;&#1076;&#1077;&#1077;&#1090;</text><text fill="#000000" font-family="sans-serif" font-size="13" lengthAdjust="spacing" textLength="8.271" x="755.7689" y="413.5169">1</text></g><!--reverse link SmartGridAgent to SmartHouseholdAgent--><g class="link" data-entity-1="ent0012" data-entity-2="ent0011" data-link-type="composition" data-source-line="67" id="lnk20"><path codeLine="67" d="M362.5804,290.9899 C314.7404,329.6899 251.29,381.0028 200.25,422.2828" fill="none" id="SmartGridAgent-backto-SmartHouseholdAgent" style="stroke:#181818;stroke-width:1;"/><polygon fill="#181818" points="371.91,283.4428,364.7295,284.1065,362.5804,290.9899,369.7609,290.3262,371.91,283.4428" style="stroke:#181818;stroke-width:1;"/><text fill="#000000" font-family="sans-serif" font-size="13" lengthAdjust="spacing" textLength="71.7729" x="265" y="380.6797">&#1091;&#1087;&#1088;&#1072;&#1074;&#1083;&#1103;&#1077;&#1090;</text><text fill="#000000" font-family="sans-serif" font-size="13" lengthAdjust="spacing" textLength="9.7246" x="198.656" y="411.7765">N</text></g><?plantuml-src ZLNRRXCn47tFLup2Iu04SPKWgf0Aj82445BXUUNiJh9MlVPYUua2LABbyeH0uWNU-8NIDX0LDVo2zuyORxBRf4aG3xciPtpcpF7nhDdcCcMQ9T1XuNPFgqn6TvLG6lenjrWpLTp4B59zBdlGPSBCHaB1Z5ctLlDEPl5XgEGMVubmUIPbYgibQhXPgrbk1OBxveRv6xUVlydVkr7-6Ton-qsFk_ck6xk3Dh0UIcikfGEu29dbml-jrL8YIX6eL-4wdDkukNbZunQygW6mZh6QXNR22pO4XaGjN4zJmPaC4TRMrk_SlNsxI0Q2bYp1Dj2cybabN38HfAgFkWrTePYTXkpb9jWhyskloe8xa20pcSQ0931PabgkPECyfUtKw6jAnnXYpPauvJFXuRvGsqDtw8xSFhW3hmKqI9WnQJAcnP7xdNzq9_Hxt0IIRPo_pVUyW6SAR8KnHfd0QA70TpU6GkzTzuVqtdNx7Yx_H3tGmn7L7Bd3QLCXau69UTUseQEKADlNWybgGs8_C9PfUwRw4sJRImeJQN-az1a25H_dUqHaw7vGRyEYf-4yp5DCKjJCafXRA0st_0Kkm7wb1WwAHaRv7dXGA2JyHMLEtFwKCokt1NQGLkSyK-iEinRreB93oCXXt0wQWDqk3pdAS526Cgtfz88mPhg7ypQOh3LOGbQtv-TZ4JUhmZD47gZCOAn4jEwDNV4fR1xmg0bncL2qShO_quP7t9Gb_yEAMmcTtugYdOaexLATwR8Ye8GkDvqzfWMUNzLeq2v5lw_vicxcgHPOX8jag2HjGiG6HODDCDI4aXNmaglykjLQSgLMvoxUZjMvSrvUdVPFhthQPoIUy5ZKVZ7pGalpNcnRK7zSNrAz3SMWF2gcw4z_2GXYsQ6UubofLtPl-o53uzRl9uHgx-cHNMZHm9UJwijWgVvRzyTF58-KVovGTcO6T3cp_No-jdbryrxXWeazdlaOZUBy7O6SkEFy0qs1qSnK9ai51Z5gNBzQ-eoPGPAW5o58jUfo6mXbJ6L3VC54nYm6J4P1AfIbB8nuwBr_cbK4Q5vpIU-o82ORAffgVMxZGEWgAzJeaGm-pz3VhQcxT_u2?></g></svg>