<?plantuml 1.2026.3beta3?><svg xmlns="http://www.w3.org/2000/svg" xmlns:xlink="http://www.w3.org/1999/xlink" contentStyleType="text/css" data-diagram-type="DESCRIPTION" height="944px" preserveAspectRatio="none" style="width:1174px;height:944px;background:#FFFFFF;" version="1.1" viewBox="0 0 1174 944" width="1174px" zoomAndPan="magnify"><defs/><g><g class="title" data-source-line="8"><text fill="#000000" font-family="sans-serif" font-size="14" font-weight="bold" lengthAdjust="spacing" textLength="425.5576" x="370.8852" y="22.9951">&#1055;&#1086;&#1090;&#1086;&#1082; &#1076;&#1072;&#1085;&#1085;&#1099;&#1093;: &#1086;&#1090; &#1075;&#1077;&#1085;&#1077;&#1088;&#1072;&#1094;&#1080;&#1080; &#1082; &#1092;&#1080;&#1085;&#1072;&#1083;&#1100;&#1085;&#1086;&#1084;&#1091; &#1090;&#1091;&#1088;&#1085;&#1080;&#1088;&#1091;</text></g><!--cluster CL_PKG--><g class="cluster" data-qualified-name="CL_PKG" data-source-line="23" id="ent0008"><path d="M90.18,469.7869 L268.7445,469.7869 A6,6 0 0 1 272.7445,473.7869 L279.7445,492.0838 L368.18,492.0838 A4,4 0 0 1 372.18,496.0838 L372.18,569.0769 A4,4 0 0 1 368.18,573.0769 L90.18,573.0769 A4,4 0 0 1 86.18,569.0769 L86.18,473.7869 A4,4 0 0 1 90.18,469.7869" fill="#FFCC80" style="stroke:#000000;stroke-width:1.5;"/><line style="stroke:#000000;stroke-width:1.5;" x1="86.18" x2="279.7445" y1="492.0838" y2="492.0838"/><text fill="#000000" font-family="sans-serif" font-size="14" font-weight="bold" lengthAdjust="spacing" textLength="180.5645" x="90.18" y="484.782">&#1050;&#1083;&#1072;&#1089;&#1089;&#1080;&#1095;&#1077;&#1089;&#1082;&#1080;&#1077; &#1084;&#1086;&#1076;&#1077;&#1083;&#1080;</text></g><!--cluster DL_PKG--><g class="cluster" data-qualified-name="DL_PKG" data-source-line="28" id="ent0011"><path d="M668.18,469.7869 L850.0599,469.7869 A6,6 0 0 1 854.0599,473.7869 L861.0599,492.0838 L880.18,492.0838 A4,4 0 0 1 884.18,496.0838 L884.18,701.6769 A4,4 0 0 1 880.18,705.6769 L668.18,705.6769 A4,4 0 0 1 664.18,701.6769 L664.18,473.7869 A4,4 0 0 1 668.18,469.7869" fill="#FFB74D" style="stroke:#000000;stroke-width:1.5;"/><line style="stroke:#000000;stroke-width:1.5;" x1="664.18" x2="861.0599" y1="492.0838" y2="492.0838"/><text fill="#000000" font-family="sans-serif" font-size="14" font-weight="bold" lengthAdjust="spacing" textLength="183.8799" x="668.18" y="484.782">&#1053;&#1077;&#1081;&#1088;&#1086;&#1089;&#1077;&#1090;&#1077;&#1074;&#1099;&#1077; &#1084;&#1086;&#1076;&#1077;&#1083;&#1080;</text></g><!--entity NB03--><g class="entity" data-qualified-name="CL_PKG.NB03" data-source-line="24" id="ent0009"><rect fill="#F1F1F1" height="36.2969" rx="4" ry="4" style="stroke:#181818;stroke-width:0.5;" width="115.6826" x="110.33" y="512.7869"/><text fill="#000000" font-family="sans-serif" font-size="14" lengthAdjust="spacing" textLength="95.6826" x="120.33" y="535.782">03_classic_ml</text></g><!--entity NB04--><g class="entity" data-qualified-name="CL_PKG.NB04" data-source-line="25" id="ent0010"><rect fill="#F1F1F1" height="36.2969" rx="4" ry="4" style="stroke:#181818;stroke-width:0.5;" width="94.0811" x="246.13" y="512.7869"/><text fill="#000000" font-family="sans-serif" font-size="14" lengthAdjust="spacing" textLength="74.0811" x="256.13" y="535.782">04_optuna</text></g><!--entity NB05--><g class="entity" data-qualified-name="DL_PKG.NB05" data-source-line="29" id="ent0012"><rect fill="#F1F1F1" height="36.2969" rx="4" ry="4" style="stroke:#181818;stroke-width:0.5;" width="68.3301" x="696.01" y="512.7869"/><text fill="#000000" font-family="sans-serif" font-size="14" lengthAdjust="spacing" textLength="48.3301" x="706.01" y="535.782">05_gru</text></g><!--entity NB06--><g class="entity" data-qualified-name="DL_PKG.NB06" data-source-line="30" id="ent0013"><rect fill="#F1F1F1" height="36.2969" rx="4" ry="4" style="stroke:#181818;stroke-width:0.5;" width="75.125" x="784.61" y="512.7869"/><text fill="#000000" font-family="sans-serif" font-size="14" lengthAdjust="spacing" textLength="55.125" x="794.61" y="535.782">06_lstm</text></g><!--entity NB07--><g class="entity" data-qualified-name="DL_PKG.NB07" data-source-line="31" id="ent0014"><rect fill="#F1F1F1" height="36.2969" rx="4" ry="4" style="stroke:#181818;stroke-width:0.5;" width="89.3916" x="696.48" y="645.3769"/><text fill="#000000" font-family="sans-serif" font-size="14" lengthAdjust="spacing" textLength="69.3916" x="706.48" y="668.372">07_hybrid</text></g><!--entity AGENTS--><g class="entity" data-qualified-name="AGENTS" data-source-line="11" id="ent0002"><rect fill="#C8E6C9" height="36.2969" rx="4" ry="4" style="stroke:#181818;stroke-width:0.5;" width="89.3574" x="688.5" y="44.2969"/><text fill="#000000" font-family="sans-serif" font-size="14" lengthAdjust="spacing" textLength="69.3574" x="698.5" y="67.292">agents.py</text></g><!--entity UTILS--><g class="entity" data-qualified-name="UTILS" data-source-line="12" id="ent0003"><rect fill="#BBDEFB" height="36.2969" rx="4" ry="4" style="stroke:#181818;stroke-width:0.5;" width="71.0576" x="795.65" y="377.4869"/><text fill="#000000" font-family="sans-serif" font-size="14" lengthAdjust="spacing" textLength="51.0576" x="805.65" y="400.482">utils.py</text></g><!--entity NB01--><g class="entity" data-qualified-name="NB01" data-source-line="15" id="ent0004"><rect fill="#FFE0B2" height="36.2969" rx="4" ry="4" style="stroke:#181818;stroke-width:0.5;" width="159.4873" x="338.43" y="127.5969"/><text fill="#000000" font-family="sans-serif" font-size="14" lengthAdjust="spacing" textLength="139.4873" x="348.43" y="150.592">01_data_generation</text></g><!--entity NB02--><g class="entity" data-qualified-name="NB02" data-source-line="16" id="ent0005"><rect fill="#FFE0B2" height="36.2969" rx="4" ry="4" style="stroke:#181818;stroke-width:0.5;" width="186.4346" x="324.96" y="294.1869"/><text fill="#000000" font-family="sans-serif" font-size="14" lengthAdjust="spacing" textLength="166.4346" x="334.96" y="317.182">02_feature_engineering</text></g><!--entity RAW--><g class="entity" data-qualified-name="RAW" data-source-line="19" id="ent0006"><rect fill="#E8EAF6" height="36.2969" rx="35" ry="35" style="stroke:#181818;stroke-width:0.5;" width="112.0459" x="362.15" y="210.8869"/><text fill="#000000" font-family="sans-serif" font-size="14" lengthAdjust="spacing" textLength="92.0459" x="372.15" y="233.882">raw_data.csv</text></g><!--entity FEAT--><g class="entity" data-qualified-name="FEAT" data-source-line="20" id="ent0007"><rect fill="#E8EAF6" height="36.2969" rx="35" ry="35" style="stroke:#181818;stroke-width:0.5;" width="105.873" x="365.24" y="377.4869"/><text fill="#000000" font-family="sans-serif" font-size="14" lengthAdjust="spacing" textLength="85.873" x="375.24" y="400.482">features.csv</text></g><!--entity WEIGHTS--><g class="entity" data-qualified-name="WEIGHTS" data-source-line="35" id="ent0015"><rect fill="#FCE4EC" height="68.8906" rx="35" ry="35" style="stroke:#181818;stroke-width:0.5;" width="169.1738" x="201.59" y="629.0769"/><text fill="#000000" font-family="sans-serif" font-size="14" lengthAdjust="spacing" textLength="109.8057" x="211.59" y="652.072">model_weights/</text><text fill="#000000" font-family="sans-serif" font-size="14" lengthAdjust="spacing" textLength="149.1738" x="211.59" y="668.3689">6x .joblib + 3x .keras</text><text fill="#000000" font-family="sans-serif" font-size="14" lengthAdjust="spacing" textLength="79.6523" x="211.59" y="684.6657">+ 3x scaler</text></g><!--entity NB08--><g class="entity" data-qualified-name="NB08" data-source-line="38" id="ent0016"><rect fill="#EF6C00" height="68.8906" rx="4" ry="4" style="stroke:#181818;stroke-width:0.5;" width="170.2881" x="333.03" y="761.6769"/><text fill="#000000" font-family="sans-serif" font-size="14" lengthAdjust="spacing" textLength="97.7949" x="343.03" y="784.672">08_simulation</text><text fill="#000000" font-family="sans-serif" font-size="14" lengthAdjust="spacing" textLength="145.1475" x="343.03" y="800.9689">9 &#1084;&#1086;&#1076;&#1077;&#1083;&#1077;&#1081;, 30 &#1076;&#1085;&#1077;&#1081;</text><text fill="#000000" font-family="sans-serif" font-size="14" lengthAdjust="spacing" textLength="150.2881" x="343.03" y="817.2657">&#1058;&#1091;&#1088;&#1085;&#1080;&#1088;: &#1101;&#1082;&#1086;&#1085;&#1086;&#1084;&#1080;&#1103; %</text></g><!--entity PLOTS--><g class="entity" data-qualified-name="PLOTS" data-source-line="40" id="ent0017"><rect fill="#E8EAF6" height="52.5938" rx="35" ry="35" style="stroke:#181818;stroke-width:0.5;" width="124.3506" x="7" y="877.5669"/><ellipse cx="22.5" cy="896.3638" fill="#000000" rx="2.5" ry="2.5"/><text fill="#000000" font-family="sans-serif" font-size="14" lengthAdjust="spacing" textLength="31.0967" x="29" y="900.562">.png</text><text fill="#000000" font-family="sans-serif" font-size="14" lengthAdjust="spacing" textLength="104.3506" x="17" y="916.8589">(16 &#1075;&#1088;&#1072;&#1092;&#1080;&#1082;&#1086;&#1074;)</text></g><!--link AGENTS to NB01--><g class="link" data-entity-1="ent0002" data-entity-2="ent0004" data-link-type="dependency" data-source-line="43" id="lnk18"><path d="M688.04,75.0969 C635.31,88.7069 553.3097,109.8678 492.2297,125.6278" fill="none" id="AGENTS-to-NB01" style="stroke:#181818;stroke-width:1;"/><polygon fill="#181818" points="486.42,127.1269,496.1339,128.7515,491.2614,125.8777,494.1352,121.0052,486.42,127.1269" style="stroke:#181818;stroke-width:1;"/><text fill="#000000" font-family="sans-serif" font-size="13" lengthAdjust="spacing" textLength="159.7515" x="604.18" y="108.6638">&#1080;&#1084;&#1087;&#1086;&#1088;&#1090; SmartGridAgent</text></g><!--link NB01 to RAW--><g class="link" data-entity-1="ent0004" data-entity-2="ent0006" data-link-type="dependency" data-source-line="44" id="lnk19"><path d="M418.18,164.3869 C418.18,178.0169 418.18,190.8069 418.18,204.4369" fill="none" id="NB01-to-RAW" style="stroke:#181818;stroke-width:1;"/><polygon fill="#181818" points="418.18,210.4369,422.18,201.4369,418.18,205.4369,414.18,201.4369,418.18,210.4369" style="stroke:#181818;stroke-width:1;"/><text fill="#000000" font-family="sans-serif" font-size="13" lengthAdjust="spacing" textLength="70.9033" x="419.18" y="191.9538">&#1089;&#1086;&#1093;&#1088;&#1072;&#1085;&#1103;&#1077;&#1090;</text></g><!--link RAW to NB02--><g class="link" data-entity-1="ent0006" data-entity-2="ent0005" data-link-type="dependency" data-source-line="45" id="lnk20"><path d="M418.18,247.6769 C418.18,261.3169 418.18,274.1069 418.18,287.7269" fill="none" id="RAW-to-NB02" style="stroke:#181818;stroke-width:1;"/><polygon fill="#181818" points="418.18,293.7269,422.18,284.7269,418.18,288.7269,414.18,284.7269,418.18,293.7269" style="stroke:#181818;stroke-width:1;"/><text fill="#000000" font-family="sans-serif" font-size="13" lengthAdjust="spacing" textLength="47.2393" x="419.18" y="275.2538">&#1095;&#1080;&#1090;&#1072;&#1077;&#1090;</text></g><!--link NB02 to FEAT--><g class="link" data-entity-1="ent0005" data-entity-2="ent0007" data-link-type="dependency" data-source-line="46" id="lnk21"><path d="M418.18,330.9769 C418.18,344.6169 418.18,357.3969 418.18,371.0269" fill="none" id="NB02-to-FEAT" style="stroke:#181818;stroke-width:1;"/><polygon fill="#181818" points="418.18,377.0269,422.18,368.0269,418.18,372.0269,414.18,368.0269,418.18,377.0269" style="stroke:#181818;stroke-width:1;"/><text fill="#000000" font-family="sans-serif" font-size="13" lengthAdjust="spacing" textLength="70.9033" x="419.18" y="358.5538">&#1089;&#1086;&#1093;&#1088;&#1072;&#1085;&#1103;&#1077;&#1090;</text></g><!--link FEAT to CL_PKG--><g class="link" data-entity-1="ent0007" data-entity-2="ent0008" data-link-type="dependency" data-source-line="47" id="lnk22"><path d="M367.64,414.0869 C361.91,418.0569 356.83,422.8969 353.18,428.7869 C349.19,435.1969 352.68,438.2469 353.18,445.7869 C353.4763,450.3444 353.862,455.032 354.3113,459.7515 C354.5359,462.1112 354.7765,464.4789 355.0296,466.8422 C355.0929,467.433 355.1569,468.0236 355.2218,468.6137 C355.2542,468.9088 354.6239,485.5373 354.6567,485.8321" fill="none" id="FEAT-to-CL_PKG" style="stroke:#181818;stroke-width:1;"/><polygon fill="#181818" points="355.3195,491.7954,358.3008,482.4086,354.7671,486.826,350.3497,483.2923,355.3195,491.7954" style="stroke:#181818;stroke-width:1;"/><text fill="#000000" font-family="sans-serif" font-size="13" lengthAdjust="spacing" textLength="47.2393" x="354.18" y="441.8538">&#1095;&#1080;&#1090;&#1072;&#1077;&#1090;</text></g><!--link FEAT to DL_PKG--><g class="link" data-entity-1="ent0007" data-entity-2="ent0011" data-link-type="dependency" data-source-line="48" id="lnk23"><path d="M451.64,414.1969 C485.59,432.0119 539.545,460.3269 585.5888,484.4906 C608.6106,496.5725 629.6547,507.6166 645.2314,515.7914 C653.0198,519.8788 654.1285,520.4607 658.747,522.8846" fill="none" id="FEAT-to-DL_PKG" style="stroke:#181818;stroke-width:1;"/><polygon fill="#181818" points="664.0598,525.6728,657.9495,517.9486,659.6325,523.3493,654.2318,525.0323,664.0598,525.6728" style="stroke:#181818;stroke-width:1;"/><text fill="#000000" font-family="sans-serif" font-size="13" lengthAdjust="spacing" textLength="47.2393" x="508.18" y="441.8538">&#1095;&#1080;&#1090;&#1072;&#1077;&#1090;</text></g><!--link UTILS to DL_PKG--><g class="link" data-entity-1="ent0003" data-entity-2="ent0011" data-link-type="dependency" data-source-line="49" id="lnk24"><path d="M795.29,400.2769 C760.95,405.7869 710.47,419.5369 683.18,453.7869 C680.5987,457.0244 678.4812,460.5944 676.753,464.3689 C676.321,465.3125 675.9133,466.2689 675.5287,467.2361 C675.3364,467.7197 675.15,468.206 674.9691,468.6947 C674.8787,468.9391 676.806,463.533 676.7184,463.7785" fill="none" id="UTILS-to-DL_PKG" style="stroke:#181818;stroke-width:1;"/><polygon fill="#181818" points="674.7021,469.4296,681.4939,462.2972,676.3823,464.7204,673.9591,459.6088,674.7021,469.4296" style="stroke:#181818;stroke-width:1;"/><text fill="#000000" font-family="sans-serif" font-size="13" lengthAdjust="spacing" textLength="115.5718" x="712.18" y="441.8538">&#1080;&#1084;&#1087;&#1086;&#1088;&#1090; &#1092;&#1091;&#1085;&#1082;&#1094;&#1080;&#1081;</text></g><!--link CL_PKG to WEIGHTS--><g class="link" data-entity-1="ent0008" data-entity-2="ent0015" data-link-type="dependency" data-source-line="50" id="lnk25"><path d="M362.6967,573.2922 C360.77,579.2569 357.7625,584.8094 353.18,589.0769 C331.23,609.5169 306.08,574.6469 286.18,597.0769 C278.63,605.5769 276.5608,611.4315 277.3508,622.7115" fill="none" id="CL_PKG-to-WEIGHTS" style="stroke:#181818;stroke-width:1;"/><polygon fill="#181818" points="277.77,628.6969,281.1314,619.4394,277.4207,623.7091,273.151,619.9983,277.77,628.6969" style="stroke:#181818;stroke-width:1;"/><text fill="#000000" font-family="sans-serif" font-size="13" lengthAdjust="spacing" textLength="105.8091" x="287.18" y="610.1438">&#1089;&#1086;&#1093;&#1088;&#1072;&#1085;&#1103;&#1077;&#1090; &#1074;&#1077;&#1089;&#1072;</text></g><!--link DL_PKG to WEIGHTS--><g class="link" data-entity-1="ent0011" data-entity-2="ent0015" data-link-type="dependency" data-source-line="51" id="lnk26"><path d="M664.1191,537.5369 C664.0063,537.615 663.8925,537.6938 663.7777,537.7734 C663.548,537.9324 663.3143,538.0943 663.0764,538.2589 C662.6008,538.588 662.109,538.9281 661.6016,539.2787 C659.5722,540.681 657.2938,542.2507 654.805,543.9584 C644.85,550.7894 631.53,559.8281 617.32,569.1869 C588.9,587.9044 556.92,607.9019 541.18,614.0769 C486.64,635.4769 427.687,646.8413 377.007,653.6213" fill="none" id="DL_PKG-to-WEIGHTS" style="stroke:#181818;stroke-width:1;"/><polygon fill="#181818" points="371.06,654.4169,380.5109,657.1882,376.0158,653.7539,379.4501,649.2588,371.06,654.4169" style="stroke:#181818;stroke-width:1;"/><text fill="#000000" font-family="sans-serif" font-size="13" lengthAdjust="spacing" textLength="105.8091" x="571.18" y="610.1438">&#1089;&#1086;&#1093;&#1088;&#1072;&#1085;&#1103;&#1077;&#1090; &#1074;&#1077;&#1089;&#1072;</text></g><!--link WEIGHTS to NB08--><g class="link" data-entity-1="ent0015" data-entity-2="ent0016" data-link-type="dependency" data-source-line="52" id="lnk27"><path d="M252.78,698.1369 C241.37,713.6969 234,731.9369 245.18,746.6769 C256.44,761.5169 289.0126,771.8127 326.8126,779.8927" fill="none" id="WEIGHTS-to-NB08" style="stroke:#181818;stroke-width:1;"/><polygon fill="#181818" points="332.68,781.1469,324.715,775.3539,327.7905,780.1017,323.0427,783.1772,332.68,781.1469" style="stroke:#181818;stroke-width:1;"/><text fill="#000000" font-family="sans-serif" font-size="13" lengthAdjust="spacing" textLength="155.4795" x="246.18" y="742.7438">&#1079;&#1072;&#1075;&#1088;&#1091;&#1078;&#1072;&#1077;&#1090; &#1074;&#1089;&#1077; &#1084;&#1086;&#1076;&#1077;&#1083;&#1080;</text></g><!--link FEAT to NB08--><g class="link" data-entity-1="ent0007" data-entity-2="ent0016" data-link-type="dependency" data-source-line="53" id="lnk28"><path d="M417.5,414.1069 C416.17,451.0269 413.35,539.6969 414.18,614.0769 C414.74,665.4769 416.0566,719.0691 417.0466,755.4191" fill="none" id="FEAT-to-NB08" style="stroke:#181818;stroke-width:1;"/><polygon fill="#181818" points="417.21,761.4169,420.9635,752.3113,417.0739,756.4187,412.9665,752.5291,417.21,761.4169" style="stroke:#181818;stroke-width:1;"/><text fill="#000000" font-family="sans-serif" font-size="13" lengthAdjust="spacing" textLength="120.5166" x="415.18" y="610.1438">&#1090;&#1077;&#1089;&#1090;&#1086;&#1074;&#1099;&#1077; &#1076;&#1072;&#1085;&#1085;&#1099;&#1077;</text></g><!--link AGENTS to NB08--><g class="link" data-entity-1="ent0002" data-entity-2="ent0016" data-link-type="dependency" data-source-line="54" id="lnk29"><path d="M778.31,65.7169 C865.41,71.3269 1048.18,89.6769 1048.18,144.7469 C1048.18,144.7469 1048.18,144.7469 1048.18,664.5269 C1048.18,774.4069 682.0494,792.4398 509.7994,794.9398" fill="none" id="AGENTS-to-NB08" style="stroke:#181818;stroke-width:1;"/><polygon fill="#181818" points="503.8,795.0269,512.8571,798.8958,508.7995,794.9543,512.741,790.8967,503.8,795.0269" style="stroke:#181818;stroke-width:1;"/><text fill="#000000" font-family="sans-serif" font-size="13" lengthAdjust="spacing" textLength="109.1479" x="1049.18" y="358.5538">&#1080;&#1084;&#1087;&#1086;&#1088;&#1090; &#1072;&#1075;&#1077;&#1085;&#1090;&#1086;&#1074;</text></g><!--link UTILS to NB08--><g class="link" data-entity-1="ent0003" data-entity-2="ent0016" data-link-type="dependency" data-source-line="55" id="lnk30"><path d="M848.71,414.2269 C857.93,424.7469 868.3,438.9269 873.18,453.7869 C910.28,566.9169 950.37,631.0269 873.18,721.6769 C826.68,776.2769 628.2173,790.2356 509.8073,793.8156" fill="none" id="UTILS-to-NB08" style="stroke:#181818;stroke-width:1;"/><polygon fill="#181818" points="503.81,793.9969,512.9268,797.7231,508.8077,793.8458,512.685,789.7267,503.81,793.9969" style="stroke:#181818;stroke-width:1;"/><text fill="#000000" font-family="sans-serif" font-size="13" lengthAdjust="spacing" textLength="102.7114" x="918.18" y="610.1438">&#1080;&#1084;&#1087;&#1086;&#1088;&#1090; &#1091;&#1090;&#1080;&#1083;&#1080;&#1090;</text></g><!--link NB01 to PLOTS--><g class="link" data-entity-1="ent0004" data-entity-2="ent0017" data-link-type="dependency" data-source-line="56" id="lnk31"><path d="M338.09,148.5469 C230.1,153.2069 51.18,169.7169 51.18,228.0369 C51.18,228.0369 51.18,228.0369 51.18,797.1169 C51.18,824.8669 55.8723,850.302 60.9723,871.592" fill="none" id="NB01-to-PLOTS" style="stroke:#181818;stroke-width:1;"/><polygon fill="#181818" points="62.37,877.4269,64.1633,867.7427,61.2052,872.5644,56.3834,869.6063,62.37,877.4269" style="stroke:#181818;stroke-width:1;"/><text fill="#000000" font-family="sans-serif" font-size="13" lengthAdjust="spacing" textLength="90.1621" x="52.18" y="441.8538">&#1075;&#1088;&#1072;&#1092;&#1080;&#1082;&#1080; EDA</text></g><!--link NB08 to PLOTS--><g class="link" data-entity-1="ent0016" data-entity-2="ent0017" data-link-type="dependency" data-source-line="57" id="lnk32"><path d="M332.8,822.9869 C270.65,841.8169 193.6121,865.1565 137.5221,882.1565" fill="none" id="NB08-to-PLOTS" style="stroke:#181818;stroke-width:1;"/><polygon fill="#181818" points="131.78,883.8969,141.5533,885.1144,136.5651,882.4466,139.2329,877.4583,131.78,883.8969" style="stroke:#181818;stroke-width:1;"/><text fill="#000000" font-family="sans-serif" font-size="13" lengthAdjust="spacing" textLength="138.0171" x="255.18" y="858.6338">&#1075;&#1088;&#1072;&#1092;&#1080;&#1082;&#1080; &#1089;&#1080;&#1084;&#1091;&#1083;&#1103;&#1094;&#1080;&#1080;</text></g><?plantuml-src bLLRQnj757xVNt6mAMtJnfLbHrOCBaYhbMjgqf2uv4MmZAIrlF5gLkoEwffIy2MEAMqmb3wLNcXf7mkAOoMo4ob_OUOVvPpPYrPh4-ZJxixvpfplNBwpmk-1yA7f2-5teUq6JakuFZV2NPVtMC2wq6IjtKxWztdRz3q_WBqTLpWPUxZ3slwUopkmpRmmQucT0ku4KCwSSx_jX4uFYeKicF5TEbmg68PmXUU0_5DEr96So2kG5t8WntAiVbGdgq3785_88HuDrO4SgATo94U0GFK4tyO8Vgr-mkT4lb77e8xKCSB6SgGErB5XV0XhQsiWVqFpXJgMhz4L3mnAdV4EHfvZ7OUBSA6tFmSiXCgwTM_h8SoRPQjatitY-iBrKjZNMnkRYAfMQrQzcaRv3rCOoBUmYBn_IRAGmtp4mgBTPeBP6DW96BL0ttclMbY4-NhTAbIBC_2YlUqmqGySs-4TbpjEW1r8N8gfIyBYNoeJLO2oLJzW_6n9DPbG-07c3NC1szDS5bhXD_h61vL7C6-LhKgzD4N5uSCKLRSgMoaidtqHi_z3FiS-dEgsZU8Az72uz7NoLsGsK8Vg4FaX1fzN6YNVK9lG2OdhEEQcVV_BTShGDCi5-Cu0o1PcoMvvB0pTbjtradeivJ3BjjyJVSuI-xBnlP6XyZj6kyI2JP3441COodFTicjKQYcLwifoxHgLEtOdw2SnxkIC9TiBHJUnbdBM5NjdlncuxSI-GWpZclwigpEORLeNDUNPUuxRsH7XPmrU-XOM7ljDpst29x247xiuLc63wu-mnJmdq7S_iZRMlw3XhflMicMcGVv9T7HjKCjsw7RxdfxH1h-RhGgMxLCKCCtMc3uQNFuzbTugg6VOr4caIpmvWm-I_CeuEVMIMK3nfodTMkZnJeD_j5X2iMkPaxZfWlEFjT_zpQ-8UMxa_i9kdSbNiQXZxTw-_Nca9Pp34GP_Yyqzm2toiCi2iOw5hf3Y3GqXB8qyyZr4s4aa7RmJPy4WGtnPaH2dc0UDEDdq6Hcr56vqrnQ2n5ESko4rrsuqHnjcnZwJZNg2wsmih_G-l3JY68HFsdmJAP3dqKGPjV_haA3YYfI9q2i4lg15Arz6j15EGfgHppJJs8raXkgdTH-BxMAwB7DTBEVpfeYqLYBtJ9bk0kD07iLxy6ZQy6YMLcSdRGHMhMBeIzw3ePL5_ndyvvn5Vw9t?></g></svg>